<svg width="21" height="25" fill="none" xmlns="http://www.w3.org/2000/svg"><path d="M17.925 3.07A10.44 10.44 0 0010.5 0C7.695 0 5.06 1.09 3.075 3.07A10.403 10.403 0 000 10.48c0 2.8 1.092 5.432 3.075 7.411l6.906 6.893a.732.732 0 001.038 0l6.906-6.893A10.403 10.403 0 0021 10.481c0-2.8-1.092-5.432-3.075-7.411zm-4.127 10.703a4.637 4.637 0 01-3.298 1.363 4.637 4.637 0 01-3.297-1.363 4.62 4.62 0 01-1.366-3.292 4.62 4.62 0 011.366-3.292A4.637 4.637 0 0110.5 5.826c1.246 0 2.417.484 3.298 1.363a4.62 4.62 0 011.366 3.292 4.62 4.62 0 01-1.366 3.292z" fill="#F54114"/></svg>