<svg width="366" height="374" fill="none" xmlns="http://www.w3.org/2000/svg"><path d="M240.418 185.138h121.094V.418H240.418v184.72z" fill="#EBEBEB"/><path d="M310.328 89.97h51.184V7.807h-51.184V89.97zm-56.791 0h51.184V7.807h-51.184V89.97zm56.791 87.763h51.184V95.569h-51.184v82.164zm-56.791 0h51.184V95.569h-51.184v82.164z" fill="#fff"/><path d="M287.125.41h-46.716v264.277h27.038l-18.868-134.479L287.125.41z" fill="#DBDBDB"/><path d="M279.036 7.557l-7.405 30.713-7.538 30.688-15.086 61.356.009-.151 6.978 64.125 3.488 32.066 3.338 32.076-3.774-32.031-3.64-32.049-7.271-64.089-.009-.08.027-.08 15.37-61.286 7.69-30.642 7.823-30.616zm-35.841 5.42l.214 26.504.124 26.504.107 53.009-.107 52.999-.124 26.504-.214 26.505-.223-26.505-.124-26.504-.098-52.999.098-53.009.124-26.504.223-26.504z" fill="#EBEBEB"/><path d="M251.917 17.943l-1.442 28.168L248.9 74.28l-3.169 56.319c.312 10.466.508 20.924.775 31.381l.738 31.382.739 31.381.596 31.355-1.041-31.328-.89-31.381-.89-31.373c-.285-10.466-.632-20.924-.89-31.381l3.444-56.31 1.78-28.151 1.825-28.231z" fill="#EBEBEB"/><path d="M258.004 252.031l-3.061-30.403-2.964-30.42c-1.896-20.283-3.862-40.557-5.696-60.849v-.116l8.66-47.357 4.405-23.656 4.45-23.656-4.094 23.727-4.156 23.71-8.419 47.419v-.116c1.94 20.283 3.729 40.575 5.598 60.867l2.67 30.438 2.607 30.412z" fill="#EBEBEB"/><path d="M240.418 134.159h10.547V128h-10.547v6.159zM314.796.41h46.707v264.277h-27.038l18.877-134.479L314.796.41z" fill="#DBDBDB"/><path d="M322.886 7.557l7.823 30.616 7.689 30.642 15.371 61.286.018.08-.009.08-7.263 64.089-3.64 32.049-3.773 32.031 3.337-32.076 3.489-32.066 6.977-64.125.009.151-15.085-61.356-7.538-30.688-7.405-30.713zm35.84 5.42l.214 26.504.124 26.504.107 53.009-.098 52.999-.124 26.504-.223 26.505-.213-26.505-.125-26.504-.107-52.999.107-53.009.125-26.504.213-26.504z" fill="#EBEBEB"/><path d="M350.04 17.943l1.78 28.15 1.78 28.151 3.453 56.311c-.231 10.457-.578 20.915-.89 31.381l-.89 31.372-.89 31.382-1.041 31.372.596-31.39.739-31.381.739-31.382c.258-10.457.462-20.915.774-31.381l-3.168-56.32-1.576-28.168-1.406-28.097z" fill="#EBEBEB"/><path d="M343.916 252.031l2.563-30.447 2.67-30.438c1.869-20.292 3.658-40.584 5.598-60.867v.151l-8.437-47.393-4.156-23.71-4.041-23.762 4.45 23.656 4.397 23.665 8.66 47.357v.116c-1.78 20.292-3.801 40.566-5.696 60.849l-2.955 30.42-3.053 30.403z" fill="#EBEBEB"/><path d="M361.503 127.991h-10.547v6.159h10.547v-6.159z" fill="#DBDBDB"/><path d="M42.456 230.519a38.906 38.906 0 01-1.905 14.855 40.662 40.662 0 01-2.794 6.416c-1.398 2.67-2.84 5.207-2.777 8.215.276.214-.712.107-.721-.187-7.627-5.153-17.8-6.773-23.363-14.676-2.67-3.738-3.755-8.312-4.111-12.825-.383-4.913-.17-10.306 1.45-14.996 1.362-3.961 4.032-7.681 8.01-9.372 3.979-1.691 9.212-1.175 13.244.427 8.677 3.462 12.37 13.421 12.967 22.143z" fill="#EBEBEB"/><path d="M41.993 289.891c-.81-3.711-1.611-7.422-2.457-11.125-1.637-7.262-3.373-14.507-5.34-21.68a323.836 323.836 0 00-3.818-12.79 73.764 73.764 0 011.549-7.645c.89-3.035 2.1-5.954 3.24-8.9.07-.178-.223-.302-.312-.133-2.118 4.032-4.868 9.194-5.34 14.124a246.033 246.033 0 00-5.215-14.24c.04-3.834.454-7.656 1.237-11.41a.142.142 0 00-.106-.139.14.14 0 00-.161.068 40.79 40.79 0 00-1.558 10.03 171.292 171.292 0 00-4.672-10.439c-.151-.312-.579-.045-.454.258 2.554 6.007 4.877 12.113 7.03 18.289a38.545 38.545 0 00-11.952-8.205c-.196-.089-.365.186-.169.284a45.73 45.73 0 0112.843 10.004 394.973 394.973 0 014.343 13.635c-4.601-5.251-11.178-8.998-17.649-11.232-.222-.071-.311.267-.098.347 7.467 2.893 13.075 7.69 18.495 13.35a480.914 480.914 0 011.566 5.554 756.716 756.716 0 015.447 21.164c.819 3.4 1.62 6.802 2.403 10.208.836 3.667 1.424 7.512 2.608 11.072.115.347.711.311.667-.089a103.813 103.813 0 00-2.127-10.36z" fill="#DBDBDB"/><path d="M33.858 222.83a19.795 19.795 0 00-3.426 6.942c0 .062.08.115.106.044a63.002 63.002 0 013.658-6.782c.143-.222-.187-.4-.338-.204zm-15.521 15.53a20.94 20.94 0 00-6.969-2.964c-.062 0-.116.081 0 .107 1.112.57 2.296.997 3.426 1.531 1.13.534 2.234 1.175 3.383 1.682a.205.205 0 00.16-.356zm-2.466-20.309a14.616 14.616 0 00-2.19-1.602.117.117 0 00-.086-.016.126.126 0 00-.076.046.125.125 0 00.011.165 15 15 0 002.154 1.647c.143.098.33-.134.187-.24z" fill="#DBDBDB"/><path d="M67.118 245.943c-5.83 1.486-11.677 2.839-17.507 4.308-.498.133-9.505-18.904-5.616-28.374 3.56-8.775 11.303-15.13 20.301-17.8 4.165-1.237 9.265-2.216 13.573-1.085 3.827 1.005 6.434 4.272 7.547 7.956 1.513 5.002.712 10.867-.41 15.869a27.764 27.764 0 01-6.176 12.727c-3.195 3.507-7.174 5.251-11.712 6.399z" fill="#EBEBEB"/><path d="M76.15 228.544a76.422 76.422 0 01-11.462 4.005 46.995 46.995 0 00-7.646 2.438 257.28 257.28 0 018.562-15.682c3.765-.934 7.743-2.465 10.68-4.984a.157.157 0 00.044-.102.163.163 0 00-.034-.107.164.164 0 00-.095-.058.163.163 0 00-.11.018c-3.151 2.047-6.587 3.213-10.04 4.548a340.937 340.937 0 012.492-4.147c.232-.383-.293-.792-.57-.427a122.154 122.154 0 00-8.721 13.43 62.944 62.944 0 01-.098-12.621.09.09 0 00-.17 0 42.014 42.014 0 00-.4 13.84 154.916 154.916 0 00-5.99 12.131c-.56-2.537-1.317-5.047-1.78-7.601a34.533 34.533 0 01-.436-11.125c0-.107-.142-.125-.169 0a39.161 39.161 0 001.62 20.47 184.192 184.192 0 00-3.017 7.467 151.142 151.142 0 00-9.203 39.605.247.247 0 00.222.236.247.247 0 00.268-.182 198.073 198.073 0 0110.12-39.16c1.868-4.958 3.977-9.79 6.23-14.454 3.444-.89 6.879-2.109 10.27-3.133a32.123 32.123 0 009.514-4.21.123.123 0 00-.023-.17.12.12 0 00-.057-.025z" fill="#DBDBDB"/><path d="M81.73 223.337c-3.56 1.113-6.968 2.733-10.537 3.872-.169.053-.089.311.08.285 3.756-.623 7.494-1.629 10.591-3.952.116-.089-.008-.249-.133-.205zm-28.452-8.722c0-.187-.222-.303-.285-.116-1.094 3.213-1.895 6.631-1.085 9.986 0 .134.24.142.249 0 .302-3.346.24-6.604 1.121-9.87zm14.845-6.933a8.544 8.544 0 00-1.78 5.465c0 .124.196.204.232.053.498-1.842 1.281-3.507 1.922-5.287a.24.24 0 00-.374-.231z" fill="#DBDBDB"/><path d="M85.452 259.231c-1.691 5.34-5.705 12.771-12.06 12.834-4.12 0-8.268-.454-12.406-.508-4.45-.071-8.9-.062-13.27.205-.365 0 .534-13.252 11.16-19.713 2.982-1.78 6.622-2.386 10.004-3.115a46.361 46.361 0 0111.82-1.229c2.438.098 4.45.614 5.34 3.115.89 2.501.222 5.857-.588 8.411z" fill="#EBEBEB"/><path d="M80.876 252.52a136.768 136.768 0 00-7.778 2.252 27.963 27.963 0 012.136-2.092c1.121-.89 2.34-1.664 3.56-2.474.098-.071 0-.267-.09-.213a14.566 14.566 0 00-6.274 4.992 131.236 131.236 0 00-9.514 3.454 35.28 35.28 0 00-6.087 3.213 23.996 23.996 0 012.198-3.836c1.415-1.834 3.32-2.848 5.17-4.148a.168.168 0 00.031-.211.17.17 0 00-.086-.073.176.176 0 00-.113-.001 15.132 15.132 0 00-8.286 8.998 34.551 34.551 0 00-6.034 5.474c-7.04 8.01-12.576 18.619-12.594 29.468 0 .258.41.338.463.062a60.136 60.136 0 0113.421-28.818 32.643 32.643 0 011.549-1.682 48.501 48.501 0 015.811-.436c2.261 0 4.513.338 6.765.516 3.71.302 7.814.347 11.16-1.522.151-.08.053-.338-.116-.276-7.458 2.715-15.29-.73-22.775.89a35.069 35.069 0 0111.036-7.12l.686-.276c4.788.579 9.852 1.825 14.516.267.133-.044.08-.258-.063-.213-4.512 1.121-8.829-.294-13.279-.517 4.842-1.886 9.79-3.391 14.64-5.26.384-.16.392-.534-.053-.418z" fill="#DBDBDB"/><path d="M83.04 257.237c-2.316.3-4.645.475-6.978.525-.054 0-.072.089 0 .098a14.5 14.5 0 007.03-.445.092.092 0 00.056-.045.094.094 0 00-.038-.126.097.097 0 00-.07-.007zm-15.798-4.601a11.233 11.233 0 00-3.444 2.403.14.14 0 00.169.223c.587-.428 1.192-.828 1.78-1.22a17.27 17.27 0 001.682-1.059c.178-.133.009-.409-.187-.347z" fill="#DBDBDB"/><path d="M29.702 269.902c.071.178-.178.338-.276.151a.239.239 0 01-.073.071.238.238 0 01-.096.036 105.86 105.86 0 01-12.967 2.261c-3.516.311-7.574.507-10.68-1.531-4.174-2.768-6.916-10.164-4.664-14.854 2.67-5.581 10.68-2.555 14.738-.57a29.565 29.565 0 0114.018 14.436z" fill="#EBEBEB"/><path d="M32.817 272.483a41.44 41.44 0 00-7.752-5.883 26.614 26.614 0 00-7.886-8.01c-.15-.098-.284.142-.142.249a35.3 35.3 0 016.622 6.969 72.662 72.662 0 00-9.728-4.45 12.993 12.993 0 00-5.224-5.242s-.098.044-.054.071a21.453 21.453 0 014.717 4.957 158.122 158.122 0 00-5.972-2.082c-.178-.063-.24.213-.07.276 3.56 1.388 7.181 2.856 10.68 4.539a41.113 41.113 0 01-12.96 0 .096.096 0 00-.067.014.097.097 0 00.015.172 25.616 25.616 0 0013.759.205 65.823 65.823 0 016.524 3.649 16.395 16.395 0 00-5.278.436 40.137 40.137 0 01-9.23 1.006c-.115 0-.15.187 0 .205 5.34.89 10.458-1.513 15.79-.89a42.255 42.255 0 015.544 4.53 41.898 41.898 0 018.099 11.418c2.243 4.566 3.453 9.408 5.269 14.125a.17.17 0 00.329-.089c-1.575-9.292-6.212-19.554-12.985-26.175z" fill="#DBDBDB"/><path d="M16.601 259.729a6.073 6.073 0 00-1.37-1.673 5.456 5.456 0 00-1.611-1.193c-.054 0-.08.054-.054.089.445.508 1.06.89 1.53 1.353.473.463.89 1.041 1.363 1.513a.08.08 0 00.052.037.083.083 0 00.1-.063.084.084 0 00-.01-.063zm-8.864 2.884c-.792-.205-1.638-.187-2.448-.356-.806-.187-1.6-.425-2.376-.712a.097.097 0 00-.126.123.1.1 0 00.046.055 7.89 7.89 0 004.904 1.139.134.134 0 00.062-.2.13.13 0 00-.062-.049z" fill="#DBDBDB"/><path d="M58.386 282.326l-.88 9.959-2.973 33.616H28.206l-3.72-33.616-1.094-9.959h34.994z" fill="#C7C7C7"/><path d="M58.386 282.326l-.88 9.959h-33.02l-1.094-9.959h34.994z" fill="#A6A6A6"/><path d="M60.994 279.612h-40.21v8.081h40.21v-8.081z" fill="#C7C7C7"/><path d="M212.882 52.208H184.5v6.889h28.382v-6.889z" fill="#EBEBEB"/><path d="M202.131 69.839V41.457h-6.889v28.382h6.889zm-144.652-.792H29.097v6.888h28.382v-6.888zm-14.187-3.863a3.444 3.444 0 100-6.889 3.444 3.444 0 000 6.889zm0 21.494a3.444 3.444 0 100-6.889 3.444 3.444 0 000 6.889zm73.537-75.722l-20.07 20.069 4.872 4.87L121.7 15.827l-4.871-4.87z" fill="#EBEBEB"/><path d="M121.693 31.03l-20.069-20.069-4.87 4.871 20.068 20.07 4.871-4.872zM37.775 139.971H9.393v6.888h28.382v-6.888zm0-12.789H9.393v6.888h28.382v-6.888zm323.221 227.733c0 10.039-79.014 18.174-176.496 18.174-97.482 0-176.496-8.135-176.496-18.174s79.014-18.174 176.496-18.174c97.482 0 176.496 8.179 176.496 18.174z" fill="#EBEBEB"/><path d="M3.813 325.732l45.176-.214 45.167-.08 90.344-.143 90.344.143 45.168.08 45.167.214-45.167.222-45.168.08-90.344.143-90.344-.143-45.167-.08-45.176-.222z" fill="#263238"/><path d="M295.854 75.357H116.029v279.566h179.825V75.357z" fill="#F54114"/><path d="M282.824 75.357H103v279.566h179.824V75.357z" fill="#F54114"/><path opacity=".1" d="M282.824 75.357H103v279.566h179.824V75.357z" fill="#000"/><path d="M151.425 146.681h-34.576v34.577h34.576v-34.577zm39.178 0h-34.577v34.577h34.577v-34.577z" fill="#fff"/><path d="M229.789 146.681h-34.576v34.577h34.576v-34.577zm39.178 0h-34.576v34.577h34.576v-34.577z" fill="#F54114"/><path d="M151.425 186.34h-34.576v34.576h34.576V186.34zm39.178 0h-34.577v34.576h34.577V186.34zm39.186 0h-34.576v34.576h34.576V186.34z" fill="#37474F"/><path d="M268.967 186.589h-34.576v34.576h34.576v-34.576z" fill="#fff"/><path d="M151.425 225.998h-34.576v34.577h34.576v-34.577zm39.178 0h-34.577v34.577h34.577v-34.577zm39.186 0h-34.576v34.577h34.576v-34.577z" fill="#37474F"/><path d="M268.967 225.998h-34.576v34.577h34.576v-34.577z" fill="#fff"/><path d="M151.425 265.656h-34.576v34.577h34.576v-34.577zm39.178 0h-34.577v34.577h34.577v-34.577zm39.186 0h-34.576v34.577h34.576v-34.577z" fill="#37474F"/><path d="M268.967 265.656h-34.576v34.577h34.576v-34.577z" fill="#fff"/><path d="M151.425 305.315h-34.576v34.576h34.576v-34.576zm39.178 0h-34.577v34.576h34.577v-34.576z" fill="#37474F"/><path d="M229.789 305.315h-34.576v34.576h34.576v-34.576zm39.178 0h-34.576v34.576h34.576v-34.576z" fill="#fff"/><path d="M128.997 160.61a2.433 2.433 0 012.394-2.572 2.39 2.39 0 012.225 1.591c.109.305.154.63.134.954a2.45 2.45 0 01-.647 1.801 2.448 2.448 0 01-1.748.78 2.404 2.404 0 01-2.358-2.554zm3.471 0c0-.801-.463-1.469-1.113-1.469-.649 0-1.076.668-1.076 1.442 0 .828.462 1.468 1.112 1.468.65 0 1.077-.667 1.077-1.441zm-1.78 6.719l6.613-9.024a.535.535 0 01.489-.259.555.555 0 01.402.162.553.553 0 01.168.399.67.67 0 01-.125.374l-6.613 9.025a.601.601 0 01-.714.217.546.546 0 01-.304-.304.553.553 0 01-.041-.216.661.661 0 01.089-.374h.036zm4.45-1.566a2.433 2.433 0 012.394-2.572 2.4 2.4 0 012.359 2.545 2.436 2.436 0 01-1.435 2.367 2.438 2.438 0 01-.951.214 2.415 2.415 0 01-2.42-2.554h.053zm3.471 0c0-.801-.463-1.469-1.104-1.469-.64 0-1.085.668-1.085 1.442 0 .828.462 1.469 1.112 1.469.65 0 1.024-.668 1.024-1.442h.053zm65.13-2.75a5.287 5.287 0 015.278-5.189 5.345 5.345 0 013.329 1.13.833.833 0 01.101 1.119.826.826 0 01-1.107.19 3.613 3.613 0 00-2.323-.792 3.816 3.816 0 00-2.59 1.032 3.559 3.559 0 00-1.05 2.51c-.001.466.091.927.271 1.357.181.429.445.818.779 1.144a3.826 3.826 0 002.59 1.041 3.627 3.627 0 002.323-.792.893.893 0 011.148.151.894.894 0 01-.142 1.157 5.395 5.395 0 01-3.329 1.122 5.263 5.263 0 01-5.278-5.18zm11.544 4.388v-8.491a.762.762 0 01.226-.566.779.779 0 01.566-.226h4.699a.8.8 0 010 1.593h-3.898v2.67h3.355c.212 0 .416.084.566.235a.798.798 0 010 1.132.798.798 0 01-.566.235h-3.355v2.67h3.898a.82.82 0 01.792.81.806.806 0 01-.792.792h-4.664a.783.783 0 01-.827-.854zm31.905-4.388a5.287 5.287 0 015.278-5.189 5.343 5.343 0 013.329 1.13.833.833 0 01.101 1.119.827.827 0 01-1.107.19 3.627 3.627 0 00-2.323-.792 3.82 3.82 0 00-2.59 1.032 3.563 3.563 0 00-1.05 2.51c-.001.466.091.927.271 1.357.181.429.446.818.779 1.144a3.83 3.83 0 002.59 1.041 3.651 3.651 0 002.323-.792.89.89 0 011.148.151.889.889 0 01-.142 1.157 5.424 5.424 0 01-3.329 1.122 5.263 5.263 0 01-5.278-5.18z" fill="#37474F"/><path d="M137.292 199.654l-3.56 8.508a.76.76 0 01-.73.481.763.763 0 01-.302-.062.809.809 0 01-.436-1.033l3.115-7.387h-3.721a.816.816 0 01-.792-.81.795.795 0 01.792-.792h4.94a.423.423 0 01.142 0c.106.026.207.064.303.116v.045s.044 0 .053.053c.009.053.045.044.062.062.018.018 0 .045 0 .054v.071l.054.08v.071a.17.17 0 010 .071.908.908 0 010 .312.454.454 0 01.08.16zm39.169 5.536a3.44 3.44 0 01-1.672 2.963 3.44 3.44 0 01-3.401.082 3.444 3.444 0 01-.267-5.911 2.372 2.372 0 01-.363-2.133 2.375 2.375 0 013.656-1.216 2.373 2.373 0 01.988 1.925 2.332 2.332 0 01-.481 1.424c.472.315.86.741 1.129 1.24.268.5.409 1.059.411 1.626zm-1.575 0a1.878 1.878 0 00-1.852-1.878 1.895 1.895 0 00-1.886 1.878 1.88 1.88 0 001.886 1.851 1.851 1.851 0 001.852-1.851zm-2.67-4.29a.81.81 0 101.619 0 .799.799 0 00-.792-.792.797.797 0 00-.593.231.81.81 0 00-.243.588l.009-.027zm36.614 1.148a3.502 3.502 0 013.319-3.423 3.498 3.498 0 013.65 3.067v.819a8.288 8.288 0 01-.507 2.946 5.021 5.021 0 01-1.861 2.465 4.089 4.089 0 01-2.153.677.816.816 0 01-.577-.21.798.798 0 01-.26-.556.817.817 0 01.774-.828 2.66 2.66 0 001.353-.409 2.77 2.77 0 00.89-1.006c.073-.119.136-.244.187-.373-.435.19-.905.287-1.38.284a3.482 3.482 0 01-3.435-3.453zm1.602 0a1.889 1.889 0 00.506 1.424 1.9 1.9 0 001.385.602 1.9 1.9 0 001.892-2.026 1.898 1.898 0 00-1.892-1.766 1.898 1.898 0 00-1.891 1.766z" fill="#fff"/><path d="M248.586 203.882a.892.892 0 01.89-.89h4.45a.894.894 0 01.657.859.893.893 0 01-.657.858h-4.45a.888.888 0 01-.89-.827z" fill="#37474F"/><path d="M137.995 245.373a.795.795 0 01-.502.737.774.774 0 01-.308.055h-.143v1.095a.79.79 0 01-.792.792.79.79 0 01-.792-.792v-1.13h-4.53a.688.688 0 01-.489-.178.755.755 0 01-.305-.523.78.78 0 01.171-.581l5.34-6.621v-.063a.167.167 0 00.077-.004.172.172 0 00.066-.04l.053-.045c.053-.044 0 0 .089 0s0-.044.053-.044h.089c.02.007.043.007.063 0h.24a.108.108 0 00.071 0h.143l.08.053.071.045c.071.044 0 0 0 0h.044l.063.062v.053c.025.02.046.044.062.072a.094.094 0 000 .062.18.18 0 010 .08v.062a.11.11 0 010 .08v5.937h.142a.796.796 0 01.884.481.802.802 0 01.06.355zm-2.537-4.352l-2.866 3.56h2.866v-3.56zm39.757.926a3.56 3.56 0 011.05 2.536 3.625 3.625 0 01-1.05 2.537 3.56 3.56 0 01-2.519 1.05 3.494 3.494 0 01-2.501-1.05.8.8 0 010-1.157.818.818 0 011.148 0 1.92 1.92 0 002.121.428 1.92 1.92 0 00.629-.428c.365-.36.573-.849.579-1.362a1.948 1.948 0 00-1.94-1.949 1.964 1.964 0 00-1.389.561.81.81 0 01-1.148 0c-.062-.054-.098-.125-.16-.187s0-.045 0-.045a.108.108 0 000-.071v-.098c0-.026 0 0 0 0a.58.58 0 010-.249l.436-3.729a.814.814 0 01.118-.322.816.816 0 01.238-.248h.098a.913.913 0 01.374-.089h4.254a.833.833 0 01.633.206.813.813 0 010 1.217.814.814 0 01-.633.206h-3.56l-.178 1.424c.317-.081.643-.122.97-.124.9-.004 1.768.333 2.43.943zm40.602 2.617a3.5 3.5 0 01-3.314 3.43 3.495 3.495 0 01-3.655-3.066v-.818a8.47 8.47 0 01.498-2.946 5.067 5.067 0 011.861-2.466 4.118 4.118 0 012.162-.676.786.786 0 01.574.21.8.8 0 01.254.555.833.833 0 01-.774.837c-.48.005-.948.144-1.353.401a3.023 3.023 0 00-.89 1.005c-.071.116-.125.249-.187.374a3.377 3.377 0 011.379-.285 3.499 3.499 0 013.445 3.445zm-1.602 0a1.894 1.894 0 00-1.891-2.026 1.893 1.893 0 00-1.787 1.261 1.894 1.894 0 001.787 2.53 1.893 1.893 0 001.891-1.765z" fill="#fff"/><path d="M248.889 243.727a.747.747 0 010-1.495h5.821a.747.747 0 010 1.495h-5.821zm3.898-3.783v.072a.996.996 0 01-1.984 0v-.072a.996.996 0 011.984 0zm0 5.999v.08a.996.996 0 01-1.984 0v-.08a.996.996 0 011.984 0z" fill="#37474F"/><path d="M135.654 278.419v8.499a.798.798 0 01-.809.793.78.78 0 01-.784-.793v-7.119l-.578.329a.721.721 0 01-.401.116.806.806 0 01-.76-.583.798.798 0 01.342-.895l1.78-1.059h.053s.045 0 .072-.044h.142a.215.215 0 01.107 0h.151c.02.007.042.007.062 0h.089a.072.072 0 01.054 0s.062.044.089.044l.053.045.063.044c.023.011.042.03.053.053v.054l.062.062v.187a.42.42 0 000 .071.152.152 0 000 .107l.16.089zm40.86 8.499a.795.795 0 01-.23.563.778.778 0 01-.562.23h-5.127a.79.79 0 01-.587-.259.8.8 0 01.044-1.13l4.264-3.854a1.857 1.857 0 00.486-2.051 1.865 1.865 0 00-1.741-1.188c-.462.002-.907.17-1.255.472l-.445.409a.8.8 0 01-1.068-1.184l.445-.4a3.467 3.467 0 014.886.249c.579.634.897 1.464.89 2.323a3.475 3.475 0 01-1.139 2.563l-2.715 2.456h3.062a.802.802 0 01.792.801zm37.985-5.331a3.503 3.503 0 011.05 2.519 3.56 3.56 0 01-6.096 2.537.81.81 0 111.148-1.148 1.907 1.907 0 001.37.56 1.99 1.99 0 001.38-.56 1.93 1.93 0 00.578-1.389 1.85 1.85 0 00-.578-1.362 1.925 1.925 0 00-1.371-.578.7.7 0 01-.587-.258.808.808 0 010-1.148l1.468-1.495h-2.331a.813.813 0 01-.751-.514.79.79 0 01-.059-.314c0-.106.021-.211.061-.309a.812.812 0 01.439-.434.802.802 0 01.31-.058h4.245a.81.81 0 01.721 1.192c-.043.072-.09.141-.143.205l-1.78 1.869c.348.17.662.402.926.685z" fill="#fff"/><path d="M254.158 281.774l-1.78 2.368 1.708 2.376a.747.747 0 01-.142 1.032.833.833 0 01-.463.161.946.946 0 01-.632-.321l-1.361-1.967-1.442 1.967a.829.829 0 01-.263.226.829.829 0 01-.333.095.783.783 0 01-.454-.161.706.706 0 01-.302-.481.726.726 0 01.141-.551l1.727-2.376-1.744-2.368a.691.691 0 01-.14-.542.694.694 0 01.3-.472.737.737 0 01.833-.045c.084.05.158.117.217.196l1.442 1.931 1.433-1.931a.808.808 0 011.094-.151.73.73 0 01.161 1.014z" fill="#37474F"/><path d="M134.728 325.34c.285.002.558.116.759.318.202.201.316.474.318.759a1.076 1.076 0 01-1.077 1.068 1.069 1.069 0 01-.758-.31 1.07 1.07 0 01-.31-.758 1.079 1.079 0 011.068-1.077zm34.417-3.008a6.234 6.234 0 01.979-3.445 3.034 3.034 0 014.224-1.163c.471.28.856.682 1.116 1.163a6.636 6.636 0 010 6.88 3.026 3.026 0 01-5.34 0 6.226 6.226 0 01-.979-3.435zm5.687 0a4.77 4.77 0 00-.694-2.563 1.666 1.666 0 00-1.335-.89 1.772 1.772 0 00-1.371.89 5.05 5.05 0 000 5.108 1.782 1.782 0 001.371.89 1.7 1.7 0 001.335-.89 4.755 4.755 0 00.694-2.545z" fill="#fff"/><path d="M209.444 321.264a.892.892 0 01.89-.837h4.45a.83.83 0 01.828.837.81.81 0 01-.828.827h-4.45a.84.84 0 01-.89-.827zm0 2.67a.892.892 0 01.89-.89h4.45a.89.89 0 010 1.717h-4.45a.89.89 0 01-.89-.836v.009zm41.537-.846h-2.047a.79.79 0 01-.792-.792.806.806 0 01.792-.792h2.047v-1.994a.802.802 0 01.234-.587.816.816 0 011.164.005.828.828 0 01.239.582v1.994h2.047a.808.808 0 01.792.792.79.79 0 01-.792.792h-2.047v2.003a.818.818 0 01-.818.818.809.809 0 01-.819-.818v-2.003zm-72.714-164a.614.614 0 01-.614.614h-1.78c-.757 2.091-2.67 7.565-3.088 9.113a1.292 1.292 0 01-.312.49.663.663 0 01-.418.16.759.759 0 01-.579-.249s-1.922-1.878-2.518-2.545c-.89-.944-.49-1.389-.365-1.469a.739.739 0 01.347-.116c.196.02.383.09.543.205l.623.65c.178.196.347.365.516.525l.489.498.552.552c.454-1.46 2.483-7.191 3.026-8.624a.982.982 0 01.169-.205.62.62 0 01.463-.213h2.296a.604.604 0 01.458.166.615.615 0 01.192.448z" fill="#37474F"/><path d="M268.976 90.148H116.849v36.401h152.127v-36.4z" fill="#fff"/><path d="M200.295 101.06v14.178a1.339 1.339 0 01-1.344 1.317 1.295 1.295 0 01-.937-.381 1.29 1.29 0 01-.38-.936v-11.82l-.961.561a1.244 1.244 0 01-.677.187 1.347 1.347 0 01-1.261-.981 1.342 1.342 0 01.567-1.493l2.955-1.78s.071 0 .098-.045c.026-.044.071-.053.115-.07h.143a.134.134 0 01.098 0 .371.371 0 01.169 0h.356c.055 0 .108.019.151.053h.089c.018 0 .098.07.151.07a.191.191 0 00.089.072s.081.053.098.08a.487.487 0 00.098.089.43.43 0 01.071.098l.098.098v.124c0 .027.054.072.054.116v.116a.855.855 0 000 .124.206.206 0 00.005.089c.007.03.021.057.039.08l.116.054zm13.91 14.187a1.29 1.29 0 01-.38.936 1.292 1.292 0 01-.937.381h-8.571a1.295 1.295 0 01-.988-.436 1.326 1.326 0 01.072-1.869l7.12-6.444a2.98 2.98 0 001.014-2.305 3.139 3.139 0 00-.792-2.092 3.072 3.072 0 00-2.314-1.005 3.158 3.158 0 00-2.082.792l-.748.676a1.32 1.32 0 01-.96.346 1.315 1.315 0 01-.918-.444 1.334 1.334 0 01.098-1.878l.748-.667a5.641 5.641 0 013.862-1.495c.807 0 1.605.17 2.342.499a5.767 5.767 0 011.939 1.405 5.662 5.662 0 011.486 3.863 5.792 5.792 0 01-1.895 4.281l-4.539 4.103h5.117a1.332 1.332 0 01.947.398 1.317 1.317 0 01.379.955zm12.425-8.847a5.822 5.822 0 011.78 4.201 5.964 5.964 0 01-10.182 4.227 1.357 1.357 0 01-.401-.961 1.357 1.357 0 011.362-1.355c.36 0 .705.142.961.394a3.21 3.21 0 002.279.943 3.301 3.301 0 002.305-.943 3.203 3.203 0 00.961-2.305 3.112 3.112 0 00-.961-2.279 3.19 3.19 0 00-2.278-.961 1.189 1.189 0 01-.546-.101 1.184 1.184 0 01-.442-.335 1.355 1.355 0 01-.294-1.475 1.34 1.34 0 01.294-.438l2.447-2.501h-3.889a1.366 1.366 0 01-1.252-1.358 1.362 1.362 0 011.252-1.357h7.12a1.34 1.34 0 011.201 1.264c-.004.227-.062.45-.169.65a1.772 1.772 0 01-.24.338l-3.026 3.124a5.33 5.33 0 011.718 1.228zm18.405 5.696a1.313 1.313 0 01-.395.941 1.32 1.32 0 01-.949.376h-.214v1.833a1.332 1.332 0 01-2.279.944 1.334 1.334 0 01-.391-.944v-1.833h-7.565a1.201 1.201 0 01-.819-.285 1.29 1.29 0 01-.213-1.851l8.9-11.054.044-.044a.312.312 0 00.071-.098.231.231 0 00.125-.071s.071 0 .089-.072a.277.277 0 01.151-.044c0-.053.045-.071.089-.071.045 0 .072 0 .152-.054.08-.053.071 0 .089 0h.409a.215.215 0 00.125 0s.098 0 .142.054h.098c.044.053.098.07.116.098l.124.07s.08 0 .08.045l.089.098a.686.686 0 01.072.098.472.472 0 01.097.116.153.153 0 00.054.098c0 .053 0 .071.044.142.045.071 0 .071 0 .098a.34.34 0 010 .142v9.915h.241a1.33 1.33 0 011.32.815c.071.17.107.353.104.538zm-4.228-7.254l-4.779 5.928h4.779v-5.928zm16.198 1.558a5.868 5.868 0 011.78 4.227 5.953 5.953 0 01-1.78 4.201 5.87 5.87 0 01-4.2 1.78h-.054a5.818 5.818 0 01-4.174-1.78 1.313 1.313 0 01-.311-1.486c.072-.165.178-.314.311-.436a1.362 1.362 0 011.914 0 3.22 3.22 0 003.54.711 3.224 3.224 0 001.052-.711 3.274 3.274 0 00.961-2.279 3.246 3.246 0 00-.946-2.296 3.244 3.244 0 00-2.293-.952 3.247 3.247 0 00-2.314.89 1.35 1.35 0 01-1.476.296 1.346 1.346 0 01-.438-.296c-.098-.089-.169-.214-.267-.312s0-.071 0-.071a.155.155 0 000-.116v-.222a1.496 1.496 0 010-.401l.721-6.23a1.49 1.49 0 01.605-.96h.098c.027 0 .044 0 .071-.045a1.29 1.29 0 01.623-.152h7.12a1.362 1.362 0 110 2.724h-6.061l-.285 2.376a6.223 6.223 0 011.611-.222 5.86 5.86 0 014.192 1.762z" fill="#000"/></svg>