<svg width="35" height="36" fill="none" xmlns="http://www.w3.org/2000/svg"><path d="M32.878 18.466a1.055 1.055 0 010-.932l1.342-2.747a3.125 3.125 0 00-1.348-4.15l-2.7-1.433a1.055 1.055 0 01-.549-.754l-.528-3.012a3.125 3.125 0 00-3.53-2.565l-3.027.429a1.055 1.055 0 01-.887-.289L19.453.888a3.125 3.125 0 00-4.363 0l-2.198 2.126c-.237.229-.56.334-.886.288l-3.028-.428a3.125 3.125 0 00-3.53 2.565l-.528 3.01c-.057.326-.257.6-.548.755l-2.7 1.433a3.125 3.125 0 00-1.35 4.15l1.343 2.747c.145.296.145.636 0 .932L.323 21.213a3.125 3.125 0 001.348 4.15l2.7 1.433c.292.155.492.43.55.754l.527 3.012a3.123 3.123 0 003.53 2.565l3.028-.429c.326-.046.65.06.886.289l2.198 2.125a3.128 3.128 0 004.363 0l2.198-2.125c.237-.23.56-.334.887-.289l3.027.429a3.125 3.125 0 003.53-2.565l.528-3.012c.057-.324.257-.6.548-.754l2.7-1.433a3.125 3.125 0 001.35-4.15l-1.343-2.747zm-19.76-9.81a3.811 3.811 0 013.807 3.807 3.81 3.81 0 01-3.806 3.807 3.81 3.81 0 01-3.807-3.807 3.81 3.81 0 013.807-3.806zm-1.964 16.93a1.035 1.035 0 01-1.468 0 1.038 1.038 0 010-1.469l13.703-13.703a1.038 1.038 0 111.468 1.469L11.154 25.586zm10.27 1.758a3.811 3.811 0 01-3.806-3.807 3.811 3.811 0 013.806-3.807 3.81 3.81 0 013.807 3.807 3.81 3.81 0 01-3.807 3.806z" fill="#F54114"/><path d="M21.424 21.807c-.954 0-1.73.776-1.73 1.73s.776 1.73 1.73 1.73 1.73-.776 1.73-1.73-.776-1.73-1.73-1.73zm-8.305-11.074c-.954 0-1.73.776-1.73 1.73s.776 1.73 1.73 1.73 1.73-.776 1.73-1.73-.776-1.73-1.73-1.73z" fill="#F54114"/></svg>