<svg width="36" height="36" fill="none" xmlns="http://www.w3.org/2000/svg"><path d="M35.938 5.432a1.056 1.056 0 00-1.79-.598l-1.491 1.493c-.798.797-2.187.797-2.984 0a2.107 2.107 0 010-2.983l1.491-1.491a1.054 1.054 0 00-.597-1.79 6.347 6.347 0 00-5.369 1.789 6.354 6.354 0 00-1.638 6.114L7.966 23.559l-.001-.001a6.38 6.38 0 00-6.113 1.64 6.367 6.367 0 00-1.79 5.369 1.056 1.056 0 001.79.597l1.491-1.492c.798-.798 2.187-.798 2.984 0a2.107 2.107 0 010 2.982l-1.491 1.492a1.054 1.054 0 00.597 1.79 6.302 6.302 0 005.369-1.79 6.354 6.354 0 001.638-6.113L28.034 12.44h.001a6.368 6.368 0 006.113-1.639 6.367 6.367 0 001.79-5.37z" fill="#F54114"/><path d="M29.672 23.344c-.5 0-1.014.075-1.617.234l-4.088-4.087-4.476 4.475 4.088 4.088c-.16.604-.235 1.118-.235 1.618A6.335 6.335 0 0029.672 36 6.335 6.335 0 0036 29.672a6.335 6.335 0 00-6.328-6.328zm3.46 6.117l-.627 2.34a1.057 1.057 0 01-.745.745l-2.34.628a1.054 1.054 0 01-1.02-.274l-1.713-1.713a1.054 1.054 0 01-.273-1.019l.628-2.34c.097-.363.382-.648.745-.745l2.34-.628c.362-.1.751.006 1.019.273l1.713 1.713c.266.267.37.655.273 1.019zM12.438 7.906A6.353 6.353 0 0010.8 1.792c-2.39-2.39-6.561-2.39-8.95 0a6.336 6.336 0 000 8.95 6.359 6.359 0 006.114 1.638l4.07 4.128 4.475-4.474-4.07-4.128zM9.68 5.95l-.627 2.34a1.057 1.057 0 01-.746.746l-2.34.627c-.344.095-.74.005-1.018-.273L3.236 7.677a1.053 1.053 0 01-.273-1.018l.627-2.34c.098-.364.382-.648.746-.746l2.34-.627c.363-.1.752.006 1.018.273L9.407 4.93c.267.267.371.656.273 1.02z" fill="#F54114"/></svg>