<svg width="36" height="32" fill="none" xmlns="http://www.w3.org/2000/svg"><path d="M15.808 19.116c0 1.21.983 2.192 2.192 2.192a2.195 2.195 0 002.192-2.192c0-.92-1.11-6.747-2.192-12.134-1.082 5.387-2.192 11.215-2.192 12.134zM6.02 4.525l4.978 4.978a10.966 10.966 0 015.946-2.467V0A17.877 17.877 0 006.018 4.525zM31.475 6.02l-4.978 4.978a10.966 10.966 0 012.467 5.946H36a17.878 17.878 0 00-4.525-10.925zM19.056 0v7.036a10.966 10.966 0 015.946 2.467l4.979-4.978A17.877 17.877 0 0019.056 0zm6.733 25.789l-.747.747 4.961 4.961.747-.747A17.898 17.898 0 0036 19.056h-7.035a10.931 10.931 0 01-3.176 6.733zM0 16.944h7.036a10.966 10.966 0 012.467-5.946L4.525 6.019A17.878 17.878 0 000 16.943zM5.25 30.75l.747.747 4.961-4.961-.747-.747a10.932 10.932 0 01-3.176-6.733H0A17.899 17.899 0 005.25 30.75z" fill="#F54114"/></svg>