<svg width="36" height="36" fill="none" xmlns="http://www.w3.org/2000/svg"><path d="M35.691 27.81l-3.865-3.866a3.149 3.149 0 01-2.128 1.713l-.526.125-.125.527c-.214.9-1.219 2.595-3.335 2.423l-.54-.044-.281.462a3.185 3.185 0 01-2.155 1.468l5.073 5.073a1.055 1.055 0 001.747-.412l1.43-4.293 4.293-1.43a1.054 1.054 0 00.412-1.747zM11.11 29.15l-.282-.462-.54.044c-2.116.172-3.121-1.523-3.335-2.423l-.125-.527-.526-.125a3.149 3.149 0 01-2.128-1.713L.309 27.81a1.055 1.055 0 00.412 1.747l4.293 1.43 1.43 4.293a1.055 1.055 0 001.747.412l5.073-5.073a3.186 3.186 0 01-2.155-1.468zm11.98-1.097l.958-1.573 1.835.15c.518.041.991-.301 1.111-.808l.426-1.792 1.79-.425c.507-.12.85-.592.808-1.111l-.149-1.835 1.572-.958c.445-.271.625-.826.425-1.307l-.709-1.699 1.2-1.397a1.056 1.056 0 000-1.374l-1.2-1.397.709-1.7c.2-.48.02-1.035-.425-1.306l-1.572-.958.15-1.835a1.056 1.056 0 00-.808-1.111L27.42 5.19l-.426-1.79a1.055 1.055 0 00-1.111-.808l-1.835.15-.958-1.573a1.055 1.055 0 00-1.307-.424l-1.7.708L18.688.254a1.055 1.055 0 00-1.374 0l-1.397 1.2-1.699-.71c-.48-.2-1.036-.02-1.306.425l-.959 1.572-1.835-.149c-.519-.041-.991.3-1.111.808L8.58 5.19l-1.79.426c-.507.12-.85.592-.808 1.111l.149 1.835-1.572.958a1.055 1.055 0 00-.425 1.306l.709 1.7-1.2 1.397a1.055 1.055 0 000 1.374l1.2 1.397-.709 1.7c-.2.48-.02 1.035.425 1.306l1.572.958-.149 1.835c-.042.519.3.99.807 1.111l1.791.425.426 1.792c.12.507.592.849 1.111.807l1.835-.149.959 1.573c.27.444.826.625 1.306.424l1.7-.709 1.396 1.2c.395.338.979.338 1.374 0l1.397-1.2 1.699.71c.48.2 1.035.02 1.306-.425zm-5.474-5.918a1.055 1.055 0 01-1.491 0L9.91 15.922a1.055 1.055 0 010-1.492l3.196-3.195a1.055 1.055 0 011.491 0l2.272 2.272 5.097-5.097a1.055 1.055 0 011.491 0l3.196 3.196c.411.412.411 1.08 0 1.491l-9.038 9.038z" fill="#F54114"/><path d="M17.616 15.744a1.055 1.055 0 01-1.491 0l-2.273-2.272-1.703 1.704 4.721 4.721 7.546-7.545-1.704-1.704-5.096 5.096z" fill="#F54114"/></svg>