<svg width="31" height="36" fill="none" xmlns="http://www.w3.org/2000/svg"><path d="M30.466 33.284A2.89 2.89 0 0127.54 36H2.926A2.89 2.89 0 010 33.284v-.046a1.872 1.872 0 011.862-1.826h26.742a1.872 1.872 0 011.883 1.826l-.021.046zm-3.919-4.804a1.825 1.825 0 01-1.851 1.755H5.755a1.826 1.826 0 01-1.836-1.754v-.052a1.82 1.82 0 011.851-1.758h18.941a1.82 1.82 0 011.836 1.759v.05zm-3.322-4.468a1.193 1.193 0 01-1.193 1.188H8.434a1.193 1.193 0 01-1.193-1.188 2.813 2.813 0 012.813-2.808H20.53c.344-.008.685.063.998.206a2.87 2.87 0 011.697 2.602zM15.12 6.46a6.465 6.465 0 01-5.344 6.366 6.863 6.863 0 01-1.115.093 6.46 6.46 0 116.459-6.46zm2.576 13.715l-3.939-8.228a.58.58 0 01-.056.056 7.483 7.483 0 01-3.745 1.841H9.86l3.044 6.326 4.793.005z" fill="#F54114"/></svg>