<svg width="114" height="85" fill="none" xmlns="http://www.w3.org/2000/svg"><g clip-path="url(#clip0)"><path d="M8.353 12.006h1.55a.78.78 0 00.546-.232.796.796 0 00.23-.55V9.366h3.933c3.301 0 4.966-1.537 4.966-4.61 0-3.075-1.665-4.612-4.966-4.612H8.353a.78.78 0 00-.545.232.796.796 0 00-.23.551v10.295c0 .203.086.406.23.551a.78.78 0 00.545.232zm2.326-9.541h2.985c.919 0 1.608.145 2.096.464.488.32.718.9.718 1.798 0 .9-.23 1.48-.718 1.798-.488.32-1.177.464-2.096.464H10.68V2.465zm30.949 8.642L40.135 8.73c-.373-.55-.69-.986-.976-1.276a2.773 2.773 0 00-.919-.638c2.067-.406 3.1-1.42 3.1-3.016 0-1.16-.401-2.059-1.205-2.755C39.33.377 38.298.03 37.063.03h-6.746a.78.78 0 00-.546.232c-.143.116-.2.32-.2.522v10.295c0 .203.085.406.229.551a.78.78 0 00.545.232h1.55a.78.78 0 00.546-.232.796.796 0 00.23-.55V7.54h2.01c.832 0 1.52.464 2.095 1.363l1.407 2.204c.143.203.316.406.574.551.258.145.488.232.689.232h1.98c.202 0 .345-.087.403-.232.028-.058.028-.087.028-.145-.086-.116-.114-.26-.23-.406zm-3.99-6.264c-.431.232-.92.348-1.493.348h-3.503V2.35h3.502c.575 0 1.063.116 1.493.348.43.232.632.58.632 1.073s-.201.841-.632 1.073zm27.186 7.047h4.593c2.383 0 4.105-.464 5.168-1.42 1.09-.958 1.607-2.466 1.607-4.496 0-2.03-.545-3.538-1.607-4.495C73.494.522 71.77.03 69.417.03h-4.593a.78.78 0 00-.546.232.814.814 0 00-.23.58v10.295c0 .203.087.406.23.551a.753.753 0 00.546.203zm2.297-9.512h2.181c1.464 0 2.47.261 2.986.812.517.551.804 1.48.804 2.784 0 1.305-.258 2.233-.804 2.784-.517.522-1.522.812-2.986.812h-2.181V2.378zM102.171.03h-1.349a.717.717 0 00-.517.231.748.748 0 00-.229.551v7.714L95.08.812a2.348 2.348 0 00-.516-.55c-.201-.146-.43-.233-.603-.233h-2.44a.731.731 0 00-.546.232.676.676 0 00-.258.551v10.295c0 .203.086.406.23.551.172.145.344.232.574.232h1.492c.23 0 .402-.087.575-.232a.796.796 0 00.23-.55V4.001l4.478 7.105c.143.203.316.406.516.551.23.145.431.232.66.232h2.699a.782.782 0 00.546-.232.798.798 0 00.229-.55V.811a.748.748 0 00-.229-.55.715.715 0 00-.546-.233z" fill="#fff"/><path d="M61.78 31.958l-8.585 5.017a2.504 2.504 0 00-1.12 2.959l2.47 7.366c-.431.638-.804 1.334-1.149 2.03l-7.55 1.537c-1.148.232-1.98 1.276-1.98 2.465v10.005c0 1.189.832 2.233 1.98 2.465l7.55 1.537c.345.696.747 1.363 1.149 2.03l-2.47 7.366c-.372 1.131.087 2.378 1.12 2.958l8.584 5.017a2.44 2.44 0 003.1-.522l5.082-5.858c.373.029.775.029 1.148.029.374 0 .775 0 1.149-.029l5.08 5.858c.776.899 2.068 1.102 3.101.522l8.584-5.017a2.504 2.504 0 001.12-2.958l-2.47-7.366c.431-.638.805-1.334 1.15-2.03l7.55-1.537c1.148-.232 1.98-1.276 1.98-2.465V53.332c0-1.19-.832-2.233-1.98-2.465l-7.55-1.537c-.345-.696-.747-1.363-1.15-2.03l2.47-7.366c.373-1.131-.086-2.378-1.12-2.959l-8.584-5.017a2.44 2.44 0 00-3.1.522l-5.081 5.859c-.374-.03-.775-.03-1.149-.03-.373 0-.775 0-1.148.03L64.88 32.48a2.44 2.44 0 00-3.1-.522zM81.041 58.32c0 5.51-4.45 10.005-9.904 10.005-5.455 0-9.904-4.495-9.904-10.005 0-5.51 4.45-10.005 9.904-10.005s9.904 4.466 9.904 10.005z" fill="#F54114"/><path d="M97.062 45.733h-.23a2.192 2.192 0 01-2.182-2.203V22.445c0-1.218.976-2.204 2.182-2.204h.23c1.206 0 2.182.986 2.182 2.204V43.56a2.186 2.186 0 01-2.182 2.175zm16.909-1.333c0-1.914-1.263-3.683-3.129-3.944-2.124-.29-4.277-.204-6.431-.349a2.014 2.014 0 00-.89.117v27.724c2.039 0 4.077 0 6.115.029 2.153.029 4.335-2.117 4.335-4.321 0-6.41.029-12.847 0-19.256zM38.67 22.794c-.143-1.566-.975-2.523-2.267-2.58-1.493-.059-2.325 1.043-2.325 3.102 0 4.988-.058 9.947.057 14.935.029 1.48-.488 1.973-1.895 1.944-3.158-.087-6.316 0-9.474-.087-1.291-.03-1.665.464-1.607 1.71a94.584 94.584 0 01-.029 6.38c-.057 1.538-.976 2.408-2.182 2.32-1.148-.086-1.75-.927-1.75-2.464 0-8.324-.058-16.618.028-24.94 0-1.422-1.148-2.843-2.412-2.872-1.349-.029-2.181.986-2.181 2.755 0 5.162-.058 10.353 0 15.516 0 1.218-.431 1.653-1.55 1.623a218.96 218.96 0 00-6.173 0c-3.1.058-4.852 1.886-4.852 4.988 0 6.004.058 11.978-.028 17.98-.03 2.379 1.78 4.93 4.88 4.93 11.254-.057 22.536-.057 33.79-.057V22.794h-.03z" fill="#fff"/></g><defs><clipPath id="clip0"><path fill="#fff" d="M0 0h114v85H0z"/></clipPath></defs></svg>