<svg width="458" height="458" fill="none" xmlns="http://www.w3.org/2000/svg"><path d="M418.529 224.741l-8.097 4.323s3.664 6.797-3.371 10.699a7.414 7.414 0 01-8.574-.797 8.251 8.251 0 01-2.931-6.861c.165-2.995 2.07-6.668 8.043-8.619l-9.719-18.256-8.006 4.277 5.716 10.699s-9.682 8.904-3.069 21.27c6.33 11.844 18.421 8.922 22.964 6.485 3.463-1.85 14.83-9.022 7.044-23.22zm-34.8-18.905l8.126-4.345-4.055-7.585-8.126 4.345 4.055 7.585zM95.703 60.172l7.511 2.592s2.18-6.302 8.766-4.15a6.414 6.414 0 014.58 5.909 7.092 7.092 0 01-2.628 5.899c-2.007 1.658-5.496 2.602-10.214 0l-5.844 16.937 7.42 2.565 3.435-9.92s11.34.915 15.306-10.571c3.801-10.992-5.166-16.937-9.38-18.394-3.261-1.154-14.518-4.167-18.952 9.133zm8.457 33.235l-7.54-2.605-2.433 7.039 7.541 2.605 2.432-7.038z" fill="#EBEBEB"/><path d="M56.645 50.856l4.388-1.264a3.884 3.884 0 012.748-4.855 3.664 3.664 0 014.085 1.264 4.095 4.095 0 01.724 3.665c-.394 1.438-1.704 3.032-4.81 3.361l2.859 9.893 4.341-1.255-1.676-5.789a8.812 8.812 0 003.664-10.03c-1.832-6.412-8.042-6.238-10.506-5.496-1.85.485-8.134 2.794-5.817 10.506zm14.968 12.817l-4.4 1.272 1.188 4.11 4.4-1.273-1.188-4.11z" fill="#F5F5F5"/><path d="M418.117 168.691l-7.007-.193s-.156 5.881-6.275 5.817a5.662 5.662 0 01-5.395-3.765 6.268 6.268 0 01.659-5.661c1.246-1.933 3.893-3.664 8.592-2.675l.44-15.801-6.934-.192-.247 9.261s-9.792 2.235-10.076 12.952c-.284 10.241 8.839 12.879 12.769 12.989 2.977.082 13.263-.366 13.474-12.732zm-15.912-25.708l7.032.194.181-6.565-7.032-.194-.181 6.565z" fill="#E0E0E0"/><path d="M291.837 408.719v23.166h71.237v-23.166h-71.237z" fill="#F5F5F5"/><path d="M288.842 402.243v6.476h76.724v-6.476h-76.724z" fill="#E0E0E0"/><path d="M327.204 431.885h35.871v-23.166h2.491v-6.476h-39.855v5.881l1.493 23.761zm-10.965-19.429h-14.445v3.49h14.445v-3.49z" fill="#E0E0E0"/><path d="M318.484 420.307h-18.549v7.364h18.549v-7.364z" fill="#fff"/><path d="M50.727 340.917a32 32 0 00-13.685-4.745c-2.235-.229-4.671-.165-6.467 1.191a1.324 1.324 0 00-.668 1.181c.104.338.33.625.632.807 5.569 4.25 13.987 4.781 20.152 1.529m-.311-.348a66.758 66.758 0 01-8.84-7.777 22.307 22.307 0 01-5.542-10.25 4.12 4.12 0 01.44-3.426c7.044 5.496 12.577 12.614 13.942 21.453z" fill="#E0E0E0"/><path d="M50.655 340.862a31.84 31.84 0 01.164-11.597 15.718 15.718 0 016.183-9.581c1.219 2.849.697 6.128-.164 9.096a44.34 44.34 0 01-6.129 12.888m6.851 11.569c-4.195.513-7.84 2.748-10.992 5.56a20.678 20.678 0 00-6.265 10.772c4.113-.256 7.603-3.151 10.13-6.412 2.529-3.261 4.278-6.824 7.063-9.865m1.567 1.924a27.07 27.07 0 013.123-25.648c2.39 8.5 1.511 18.1-3.123 25.648zm9.123 10.863a19.595 19.595 0 00-18.723 10.773c-.23.467-.44 1.053-.128 1.474a1.4 1.4 0 001.245.358c3.664-.239 6.953-2.455 9.655-4.984 2.702-2.528 5.047-5.441 8.024-7.63m-.365-.586a34.908 34.908 0 01-.348-19.465c.687-2.51 1.832-5.148 4.159-6.32a.824.824 0 01.632-.12c.184.105.326.27.403.468a11.768 11.768 0 01.98 5.587 34.86 34.86 0 01-.916 5.652c-.724 3.462-1.118 7.172-3.014 10.149-.431.715-.82 1.456-1.163 2.217-.357.751-.367 1.026-.696 1.621m24.117 3.82c-1.786-6.806.11-15.059 4.397-20.638.32-.412.733-.851 1.255-.806.788.074.99 1.127.916 1.915a37.346 37.346 0 01-6.613 19.529m2.225 1.484c8.245 2.153 17.753.064 24.632-5.011a19.933 19.933 0 00-13.337-1.63c-4.452 1.017-8.528 3.014-11.294 6.641zm1.833-4.534c4.635-7.548 13.511-12.476 22.36-12.925-1.017 3.6-3.976 6.412-7.328 8.088-3.353 1.676-7.063 2.428-10.736 3.133-1.429.284-3.389.586-4.314 1.704m-3.527-21.984a64.743 64.743 0 002.858-13.099c.348-4.461-.284-9.16-2.601-12.952-4.333 8.372-4.763 18.155-.385 26.5m14.682-7.814c5.066-9.16 15.389-16.543 25.832-17.569-4.031 10.03-15.023 17.78-25.832 17.569zm-3.177 1.805c7.547 1.145 13.969 5.963 21.068 8.885a9.358 9.358 0 004.754.916 3.709 3.709 0 002.326-6.577 10.142 10.142 0 00-3.444-2.098c-7.685-3.197-15.92-3.279-24.008-1.337" fill="#E0E0E0"/><path d="M99.523 343.784c1.713.495 2.29 1.374 3.664 2.528a39.304 39.304 0 0015.893 8.18c.604.156 1.401.211 1.703-.339.303-.55-.064-1.063-.412-1.493a21.983 21.983 0 00-9.627-6.531c-3.664-1.374-6.861-3.023-11.258-2.666m-4.89-31.638a30.23 30.23 0 0023.138 7.859 1.59 1.59 0 001.053-.376c.577-.632-.119-1.612-.797-2.143-6.806-5.304-15.04-7.502-23.394-5.35" fill="#E0E0E0"/><path d="M100.439 309.69a32.209 32.209 0 0128.864-4.763 22.9 22.9 0 01-13.74 6.037 43.602 43.602 0 01-15.114-1.274m-2.327-14.692c-.668-6.788-.238-12.146-.705-18.971 0-.54-.156-1.2-.669-1.392-.705-.275-1.3.595-1.539 1.319a21.773 21.773 0 002.895 18.897" fill="#E0E0E0"/><path d="M97.627 295.749a39.927 39.927 0 0011.248-10.928c2.217-3.041 4.095-6.678 3.591-10.415a10.783 10.783 0 00-8.116 4.031 22.66 22.66 0 00-4.131 8.317c-.916 2.986-1.53 6.064-2.592 8.995zm11.047-3.069a90.666 90.666 0 0027.681-16.323c-3.306-1.328-7.099-.531-10.396.806-7.557 3.041-13.74 8.189-17.404 15.444m-7.795 6.852c5.111.558 10.305.916 15.37.082 5.066-.833 9.692-2.812 14.345-4.772.405-.117.752-.382.971-.742a1.115 1.115 0 00-.348-1.228 2.895 2.895 0 00-1.219-.568c-5.065-1.419-10.524-.751-15.507.916a72.214 72.214 0 00-13.612 6.312zm-29.194 12.595c-3.49-7.035-3.26-15.243-.247-22.497 2.116 3.233 2.373 7.328 1.988 11.184-.385 3.857-1.557 7.804-1.63 11.661m-14.033-7.374a31.34 31.34 0 00-23.322 9.929c4.398.525 8.85-.3 12.77-2.363a65.583 65.583 0 0010.991-7.328m-9.801-3.362c-4.26-.348-8.354-.87-12.448.385a14.88 14.88 0 00-9.49 8.043 22.442 22.442 0 0011.67-2.208 66.236 66.236 0 0010.268-6.22zm13.858.138c-3.828-2.51-7.758-5.057-12.219-6.101-4.46-1.044-9.627-.275-12.741 3.087 3.609 2.125 7.987 2.373 12.173 2.373s9.316-.055 13.264 1.337" fill="#E0E0E0"/><path d="M62.158 302.28c-6.54-6.412-9.022-17.981-6.412-26.775a40.753 40.753 0 016.412 26.775zm18.01-18.247c1.237-2.876 2.098-5.88 3.206-8.803a25.505 25.505 0 014.58-8.124 12.046 12.046 0 018.107-4.196 32.649 32.649 0 01-15.737 21.169m-3.381 3.747c-2.043-2.813-4.406-6.632-7.173-8.73-2.766-2.098-6.412-3.371-9.764-2.565a22.714 22.714 0 0016.937 11.295zm.614-3.564a48.536 48.536 0 01-3.224-10.451 16.405 16.405 0 011.63-10.644c3.6 6.796 4.754 14.088 1.777 21.178m2.455-21.178c2.043-6.733 8.244-11.688 14.867-13.969a5.496 5.496 0 012.601-.385 2.262 2.262 0 011.924 1.603c.238 1.145-.705 2.171-1.594 2.931a50.495 50.495 0 01-17.798 9.82zm.074-5.505c.265-4.342.531-8.748 1.95-12.824 1.42-4.077 4.132-7.979 8.09-9.774.677 4.387-1.265 8.748-3.592 12.522-2.326 3.774-5.148 7.328-6.549 11.541m.001 1.521c-1.686-4.901-1.832-11.139-4.8-15.416-2.052-2.987-5.34-5.02-7.108-8.19a12.44 12.44 0 00.44 9.298 27.05 27.05 0 005.431 7.786c2.18 2.317 4.04 4.067 6.064 6.522" fill="#E0E0E0"/><path d="M80.195 405.193c-.128 0-.238-32.738-.247-73.125-.01-40.386.091-73.124.22-73.124.128 0 .238 32.729.247 73.124.01 40.396-.082 73.125-.22 73.125z" fill="#E0E0E0"/><path d="M108.811 307.116a7.394 7.394 0 01-1.227.458l-3.389 1.145a180.545 180.545 0 00-10.992 4.132c-4.214 1.749-8.244 3.279-10.461 5.239a7.694 7.694 0 00-2.107 2.748c-.32.77-.376 1.246-.421 1.237-.046-.009 0-.119 0-.348.054-.313.137-.619.247-.916a7.33 7.33 0 011.979-2.959 17.972 17.972 0 014.58-2.83 146.213 146.213 0 015.963-2.611 140.262 140.262 0 0111.12-4.012 91.132 91.132 0 013.435-.999c.414-.136.84-.231 1.273-.284z" fill="#E0E0E0"/><path d="M118.163 284.079a2.275 2.275 0 01-.348.366l-1.044.99-3.93 3.563-12.998 11.624c-5.093 4.534-9.499 8.867-12.549 12.128a119.847 119.847 0 00-3.554 3.93c-.385.43-.696.796-.916 1.08a2.01 2.01 0 01-.357.358c.07-.153.163-.295.275-.422.201-.256.494-.65.916-1.136a83.785 83.785 0 013.444-4.03 163.065 163.065 0 0112.485-12.265c5.111-4.525 9.764-8.592 13.144-11.523l4.022-3.445 1.108-.916a2.87 2.87 0 01.302-.302z" fill="#E0E0E0"/><path d="M94.348 305.229c-.137-.054.916-2.509 1.988-5.624 1.072-3.114 1.575-5.734 1.713-5.706a19.552 19.552 0 01-1.264 5.862 37.122 37.122 0 01-1.585 3.93 6.41 6.41 0 01-.852 1.538zm-14.117 19.823a5.761 5.761 0 01-.787-.916l-2.016-2.574a716.04 716.04 0 00-6.64-8.501c-2.62-3.297-5.03-6.256-6.77-8.399l-2.06-2.547a5.87 5.87 0 01-.706-.971c.313.254.598.539.852.852.522.568 1.264 1.402 2.17 2.446 1.833 2.088 4.26 5.019 6.88 8.326a281.31 281.31 0 016.55 8.592 135.104 135.104 0 011.886 2.666c.25.318.465.662.641 1.026z" fill="#E0E0E0"/><path d="M73.957 317a11.512 11.512 0 01-2.629-4.928 13.88 13.88 0 01-.595-4.956h.21c-.1.376-.164.578-.2.568-.037-.009 0-.21 0-.604h.21c.103 1.634.383 3.253.833 4.827A37.598 37.598 0 0073.957 317zm-8.097-10.195a8.542 8.542 0 00-1.832-1.063 12.248 12.248 0 00-5.093-.403c-1.73.131-3.446.407-5.13.825-.69.223-1.398.391-2.115.504a7.31 7.31 0 012.024-.825 23.882 23.882 0 015.184-.98 11.14 11.14 0 015.258.568 3.328 3.328 0 011.704 1.374zm-1.923-2.464c0 .073-1.071-.431-2.812-1.026a28.21 28.21 0 00-14.17-1.035c-1.832.33-2.904.669-2.932.586.23-.143.48-.251.742-.32.697-.24 1.406-.439 2.126-.596a25.326 25.326 0 017.254-.504c2.432.186 4.824.726 7.1 1.603.687.263 1.357.569 2.005.916.247.089.479.216.687.376zm16.23-10.442a58.664 58.664 0 01-2.052-7.127 57.54 57.54 0 01-1.593-7.236 58.582 58.582 0 012.051 7.172 57.53 57.53 0 011.594 7.191z" fill="#E0E0E0"/><path d="M80.297 293.899a33.995 33.995 0 00-2.272-4.269 18.714 18.714 0 00-3.343-3.444c0-.055.55.137 1.291.659.95.696 1.773 1.548 2.437 2.519a9.356 9.356 0 011.887 4.535zm-.102 93.844s-.147-.788-.513-2.18a31.19 31.19 0 00-2.19-5.67c-2.262-4.626-6.411-10.479-11.605-16.351-2.592-2.968-5.111-5.762-7.246-8.436a58.966 58.966 0 01-5.175-7.466 35.49 35.49 0 01-2.61-5.496c-.239-.678-.422-1.209-.514-1.584a2.168 2.168 0 01-.137-.568s.284.751.825 2.088a39.087 39.087 0 002.748 5.441 63.536 63.536 0 005.22 7.328c2.144 2.647 4.663 5.423 7.265 8.391 5.24 5.88 9.352 11.816 11.55 16.488a28.912 28.912 0 012.07 5.771c.147.714.248 1.264.284 1.639.034.2.043.403.028.605zm25.859-29.202c-.436.28-.889.534-1.356.76a29.853 29.853 0 00-3.517 2.317 40.041 40.041 0 00-4.58 4.214c-1.622 1.713-3.289 3.664-4.992 5.826-3.408 4.278-6.596 8.051-8.5 11.074-.972 1.493-1.677 2.748-2.135 3.664a12.17 12.17 0 01-.751 1.365c.03-.132.073-.261.128-.385.1-.247.238-.613.458-1.062a34.206 34.206 0 012.015-3.747c1.832-3.087 5.01-6.915 8.409-11.184 1.713-2.134 3.398-4.131 5.047-5.835a38.112 38.112 0 014.736-4.177 23.702 23.702 0 013.664-2.217c.449-.229.815-.366 1.053-.467.238-.101.312-.165.321-.146z" fill="#E0E0E0"/><path d="M106.559 368.012a20.12 20.12 0 01-2.858.412 37.803 37.803 0 00-6.797 1.338 20.286 20.286 0 00-6.082 3.197c-1.402 1.08-2.061 1.978-2.125 1.923-.064-.055.11-.256.421-.659a11.13 11.13 0 011.493-1.53 18.569 18.569 0 016.147-3.38 30.853 30.853 0 016.906-1.218c.96-.118 1.929-.145 2.895-.083z" fill="#E0E0E0"/><path d="M89.529 373.847c-.147-.092 1.145-2.061 2.144-4.708.998-2.647 1.163-5.029 1.328-5.002a4.58 4.58 0 010 1.539 17.06 17.06 0 01-.834 3.664 17.963 17.963 0 01-1.667 3.325 4.828 4.828 0 01-.971 1.182zm24.897-40.744c-.141.1-.295.18-.458.239l-1.346.613a32.56 32.56 0 00-2.107.999c-.806.421-1.759.852-2.748 1.438l-1.567.916c-.54.311-1.071.687-1.639 1.035-1.154.705-2.309 1.566-3.545 2.446a60.685 60.685 0 00-13.612 14.069c-.834 1.255-1.658 2.446-2.317 3.664-.34.577-.687 1.127-.98 1.677l-.834 1.594c-.559 1.007-.916 1.96-1.347 2.748-.43.787-.687 1.548-.916 2.143-.229.595-.412 1.008-.568 1.365-.055.163-.13.32-.22.467a1.78 1.78 0 01.138-.495c.128-.366.284-.833.476-1.401a24.83 24.83 0 01.861-2.18c.376-.834.742-1.832 1.283-2.831.266-.513.531-1.053.815-1.612.284-.559.632-1.117.916-1.713.65-1.191 1.466-2.391 2.3-3.664a62.69 62.69 0 016.255-7.685 63.982 63.982 0 017.466-6.522c1.246-.87 2.418-1.722 3.591-2.418.577-.348 1.117-.715 1.667-1.017l1.594-.87c.998-.577 1.951-.989 2.748-1.383.701-.341 1.42-.647 2.152-.916l1.383-.532c.177-.085.365-.144.559-.174z" fill="#E0E0E0"/><path d="M93.963 346.816a3.361 3.361 0 011.127-1.676 7.063 7.063 0 014.58-1.741 12.352 12.352 0 014.772.916 7.064 7.064 0 011.832.916 11.022 11.022 0 01-1.915-.559 14.527 14.527 0 00-4.644-.778 7.429 7.429 0 00-4.332 1.52c-.504.436-.978.904-1.42 1.402zm-3.059 3.151a17.081 17.081 0 001.292-4.186 16.74 16.74 0 00-.293-4.379c.275.361.46.781.54 1.228a8.628 8.628 0 01.22 3.206 8.725 8.725 0 01-.916 3.068c-.44.724-.797 1.1-.843 1.063zm-33.316 42.466c.705 12.512 4.47 25.236 10.277 38.105h25.218c5.496-12.741 9.041-25.446 9.664-38.105h-45.16z" fill="#E0E0E0"/><path d="M98.662 412.676c0 .138-8.308.238-18.549.238-10.24 0-18.548-.1-18.548-.238 0-.137 8.308-.229 18.549-.229 10.24 0 18.548.101 18.548.229zm-.569 4.534c0 .138-7.786.239-17.404.239s-17.404-.101-17.404-.239c0-.137 7.786-.238 17.404-.238s17.404.11 17.404.238zM68.27 400.649c.317 3.865.317 7.75 0 11.615a70.937 70.937 0 010-11.615z" fill="#FAFAFA"/><path d="M81.78 400.649a76.026 76.026 0 010 12.027 76.026 76.026 0 010-12.027zm12.687-.101a79.098 79.098 0 010 12.266 79.073 79.073 0 010-12.266z" fill="#FAFAFA"/><path d="M101.949 400.649c0 .129-9.746.238-21.754.238-12.01 0-21.755-.109-21.755-.238 0-.128 9.737-.238 21.755-.238 12.017 0 21.754.11 21.754.238z" fill="#FAFAFA"/><path d="M397.453 380.021h-61.546v8.455h61.546v-8.455z" fill="#263238"/><path d="M397.544 388.585h-61.738v-8.674h61.738v8.674zm-61.528-.201h61.327v-8.244h-61.327v8.244z" fill="#263238"/><path d="M341.613 385.663l8.858 43.703h32.774l8.565-40.89-50.197-2.813z" fill="#263238"/><path d="M341.613 425.235l4.727 6.494h39.837l5.633-6.494h-50.197z" fill="#455A64"/><path d="M364.367 386.937c-.119 0-.275-20.244-.348-45.214-.073-24.97 0-45.223.092-45.223.091 0 .275 20.244.348 45.223.073 24.979.027 45.214-.092 45.214zm13.712-50.664c-.04.16-.095.317-.165.467l-.549 1.31-.403.916-.412 1.154c-.147.412-.303.852-.477 1.319-.174.467-.293.971-.449 1.502a60.042 60.042 0 00-1.722 7.53 90.759 90.759 0 00-.916 9.425 127.126 127.126 0 00.486 17.212c.192 2.198.394 3.975.54 5.203.064.577.119 1.044.156 1.411.012.164.012.33 0 .494a1.657 1.657 0 01-.11-.476c-.064-.376-.147-.834-.238-1.411a96.05 96.05 0 01-.687-5.184 113.301 113.301 0 01-.614-17.267c.155-3.173.486-6.335.989-9.471a57.298 57.298 0 011.832-7.557c.174-.532.312-1.036.495-1.503.183-.467.348-.916.504-1.319l.449-1.136c.146-.348.302-.659.439-.916.248-.522.458-.916.623-1.282.165-.366.211-.43.229-.421z" fill="#263238"/><path d="M376.477 319.895a3.777 3.777 0 01-.192.668c-.165.467-.376 1.1-.642 1.887l-.476 1.356a83.434 83.434 0 01-.495 1.63c-.357 1.173-.778 2.501-1.145 4.003-.201.751-.403 1.53-.623 2.336-.219.806-.375 1.676-.567 2.565-.431 1.759-.742 3.664-1.145 5.679a167.879 167.879 0 00-1.686 13.154c-.412 4.69-.559 9.16-.614 13.254-.055 4.095 0 7.759.202 10.837.055 1.548.156 2.94.238 4.158.082 1.219.147 2.281.22 3.142.073.861.119 1.484.156 1.979.022.231.022.464 0 .696 0 0-.046-.238-.11-.687-.064-.449-.138-1.145-.229-1.979-.092-.833-.211-1.905-.303-3.132-.091-1.228-.219-2.611-.293-4.159-.21-3.087-.293-6.769-.302-10.855-.009-4.085.192-8.582.577-13.291.385-4.708 1.026-9.16 1.731-13.19.413-2.006.733-3.921 1.182-5.688.211-.916.412-1.741.605-2.556.192-.815.439-1.594.641-2.345.394-1.493.833-2.821 1.218-3.994.183-.577.366-1.127.531-1.63l.504-1.347c.302-.769.541-1.392.724-1.832a3.96 3.96 0 01.293-.659zm-16.003 70.623a.948.948 0 010-.238c0-.183 0-.412-.055-.696-.046-.641-.101-1.539-.184-2.675-.146-2.363-.357-5.725-.613-9.865-.532-8.327-1.31-19.832-2.748-32.472a392.685 392.685 0 00-2.409-17.78c-.458-2.748-.916-5.304-1.347-7.713-.43-2.409-.916-4.644-1.328-6.686-.412-2.043-.852-3.875-1.218-5.496a137.685 137.685 0 00-.99-4.132c-.293-1.126-.485-1.978-.641-2.61-.064-.275-.11-.504-.156-.678a1.183 1.183 0 010-.238.817.817 0 01.083.229l.201.668.715 2.584a100.72 100.72 0 011.062 4.122c.376 1.612.861 3.444 1.283 5.496.421 2.051.916 4.268 1.383 6.686.467 2.419.916 4.993 1.392 7.713.916 5.45 1.732 11.459 2.446 17.789 1.402 12.668 2.125 24.173 2.583 32.509.22 4.167.385 7.538.476 9.874 0 1.136.074 2.034.101 2.684v.696a.927.927 0 01-.036.229z" fill="#263238"/><path d="M363.863 306.237c-.266-2.867-3.16-5.038-6.046-5.065a9.542 9.542 0 00-7.328 3.975 23.037 23.037 0 00-3.526 7.832c-1.942 6.76-2.996 13.859-2.171 20.839.824 6.98 3.664 13.859 8.674 18.787.815.806 1.832 1.603 2.986 1.365a3.555 3.555 0 001.576-.971 46.624 46.624 0 0015.132-35.458c-.073-2.657-.421-5.423-1.896-7.631-1.475-2.207-4.891-4.58-7.401-3.664m-21.507-22.982l-4.058 7.328c-.092.165-.22.357-.412.375-.193.019-.376-.183-.495-.357l-10.717-16.488 2.464-1.392 13.218 10.534z" fill="#F54114"/><path opacity=".2" d="M342.356 283.264l-4.058 7.328c-.092.165-.22.357-.412.375-.193.019-.376-.183-.495-.357l-10.717-16.488 2.464-1.392 13.218 10.534z" fill="#000"/><path d="M364.11 296.5l-36.585-21.59a1.67 1.67 0 01-.916-.916c-.147-.541.256-1.063.65-1.466a25.229 25.229 0 0119.548-7.685 22.348 22.348 0 0117.679 10.992c3.535 6.311 3.664 14.656-.404 20.647" fill="#F54114"/><path d="M332.802 268.022c.155-.045.315-.067.476-.065.312 0 .779-.073 1.383-.064a27.48 27.48 0 015.075.403 29.655 29.655 0 017.227 2.199 29.724 29.724 0 0116.488 19.236c.457 1.639.763 3.316.916 5.01.064.605 0 .751.055 1.072a1.992 1.992 0 01-.284.797 6.085 6.085 0 00.055-1.832 30.034 30.034 0 00-24.475-26.152 32.298 32.298 0 00-5.02-.54c-1.273-.046-1.896-.028-1.896-.064z" fill="#263238"/><path d="M359.164 281.597a8.884 8.884 0 01-1.832.842 84.042 84.042 0 01-4.58 1.622 68.458 68.458 0 01-4.708 1.337 8.939 8.939 0 01-1.997.385 8.93 8.93 0 011.905-.678l4.663-1.456 4.625-1.521c.622-.24 1.267-.418 1.924-.531zm-5.762-15.472c.325 1.334.47 2.705.431 4.077a15.677 15.677 0 01-.229 4.103 26.061 26.061 0 01-.211-4.094c-.11-1.36-.107-2.726.009-4.086zm-26.197 8.373a16.737 16.737 0 012.656-.916 113.49 113.49 0 0113.209-3.179 15.298 15.298 0 012.794-.375c-.9.287-1.818.514-2.748.677-1.695.376-4.04.916-6.614 1.521-2.573.605-4.909 1.2-6.558 1.658-.897.272-1.812.477-2.739.614z" fill="#263238"/><path d="M348.676 300.008c-3.142-2.381-6.467-2.858-10.415-2.693a31.803 31.803 0 00-11.404 2.941c-6.174 2.702-11.972 6.686-15.655 12.32-3.682 5.633-4.974 13.099-2.216 19.236.212.644.66 1.184 1.254 1.511.684.2 1.416.145 2.061-.156 7.017-2.29 14.089-4.58 20.537-8.179 6.449-3.6 12.33-8.574 15.792-15.087a13.095 13.095 0 001.658-5.01 6.197 6.197 0 00-1.612-4.892" fill="#F54114"/><path d="M348.74 299.266a1.858 1.858 0 01-.504.211l-1.466.504-1.071.357c-.385.137-.797.312-1.237.486-.916.357-1.924.714-3.004 1.245l-1.723.779c-.595.275-1.19.614-1.832.916-1.273.632-2.564 1.429-3.929 2.235a62.199 62.199 0 00-15.471 13.685c-.981 1.255-1.933 2.427-2.748 3.609-.394.586-.806 1.136-1.155 1.695l-.998 1.603c-.66 1.007-1.145 1.987-1.621 2.821-.229.421-.449.806-.632 1.172-.184.367-.339.706-.495 1.008a53.32 53.32 0 01-.687 1.392 2.298 2.298 0 01-.266.477c.046-.174.107-.342.184-.504l.622-1.438.449-1.026c.174-.376.394-.77.614-1.191.449-.852.916-1.832 1.566-2.867l.98-1.631c.339-.567.752-1.126 1.145-1.712.77-1.2 1.723-2.391 2.694-3.664a60.387 60.387 0 0115.571-13.74c1.384-.797 2.684-1.594 3.967-2.208.641-.321 1.246-.65 1.832-.916l1.74-.76c1.099-.513 2.144-.852 3.041-1.191.458-.165.871-.33 1.264-.458l1.081-.321 1.493-.421c.193-.069.393-.118.596-.147zm-24.586 13.319a75.666 75.666 0 01-7.648 2.464 72.867 72.867 0 01-7.786 2.043 77.022 77.022 0 017.657-2.464 72.71 72.71 0 017.777-2.043z" fill="#263238"/><path d="M323.843 329.476a11.817 11.817 0 01-.165-2.391 110.618 110.618 0 010-5.761c.055-2.254.184-4.287.312-5.753.017-.799.119-1.594.302-2.372a14.9 14.9 0 010 2.39c-.046 1.613-.11 3.582-.174 5.753-.064 2.171-.101 4.131-.146 5.743.028.799-.015 1.6-.129 2.391zm14.473-7.374c-.128 0-.513-4.131-.861-9.251-.348-5.121-.541-9.27-.422-9.279.119-.01.504 4.131.861 9.251.358 5.121.541 9.27.422 9.279z" fill="#263238"/><path d="M320.298 303.196a13.426 13.426 0 012.455-.073c1.511 0 3.6.055 5.908.128 2.308.073 4.397.174 5.899.266.82.004 1.639.081 2.446.229-.811.105-1.63.13-2.446.073-1.511 0-3.609-.055-5.917-.128a216.546 216.546 0 01-5.899-.257 13.383 13.383 0 01-2.446-.238zm34.735 50.38a2.263 2.263 0 01-.055-.486c0-.375 0-.833-.064-1.41-.055-1.218-.064-2.995 0-5.185.064-2.189.192-4.79.449-7.676.256-2.885.705-6.036 1.291-9.325.587-3.288 1.338-6.412 2.08-9.16a93.071 93.071 0 012.29-7.328c.742-2.042 1.355-3.728 1.832-4.854l.558-1.301a2.13 2.13 0 01.22-.44 2.18 2.18 0 01-.137.476c-.128.339-.284.779-.477 1.319-.439 1.145-1.025 2.822-1.712 4.892-.687 2.07-1.448 4.58-2.19 7.328s-1.438 5.89-2.042 9.16c-.605 3.27-1.008 6.412-1.319 9.297a110.516 110.516 0 00-.541 7.64 144.031 144.031 0 00-.119 5.175v1.402c0 .161-.022.321-.064.476z" fill="#263238"/><path d="M356.966 329.613a10.462 10.462 0 01-1.466 1.603 86.772 86.772 0 01-3.82 3.554 79.814 79.814 0 01-4.03 3.326 9.821 9.821 0 01-1.777 1.236 11.53 11.53 0 011.585-1.475l3.929-3.416 3.903-3.454a11.163 11.163 0 011.676-1.374zm11.578 9.307a16.722 16.722 0 01-1.558-2.153l-3.609-5.276c-1.401-1.987-2.674-3.774-3.664-5.221a18.045 18.045 0 01-1.484-2.208c.636.62 1.215 1.294 1.732 2.016a109.05 109.05 0 013.801 5.166 119.82 119.82 0 013.518 5.359c.488.733.911 1.509 1.264 2.317zm-6.064-29.312c.064.101-3.783 2.693-8.592 5.789-4.809 3.096-8.766 5.496-8.831 5.414-.064-.083 3.783-2.693 8.593-5.789 4.809-3.097 8.766-5.524 8.83-5.414zm10.845 11.697a69.42 69.42 0 01-5.816-5.377 69.603 69.603 0 01-5.496-5.688 71.425 71.425 0 015.816 5.377 73.4 73.4 0 015.496 5.688z" fill="#263238"/><path d="M376.055 321.076l3.297-.274a16.365 16.365 0 006.678-2.043 25.87 25.87 0 013.105-1.557c4.086-1.64 8.638-1.347 13.035-1.567a54.142 54.142 0 0020.729-5.303 2.04 2.04 0 00.916-.825c.678-1.236-.586-2.336-1.667-3.004-5.56-3.426-11.23-6.898-17.542-8.601-6.311-1.704-13.465-1.411-18.851 2.29-6.32 4.351-8.619 13.282-9.691 20.884" fill="#F54114"/><path d="M423.88 309.104a3.281 3.281 0 01-.559-.256l-1.567-.825c-1.355-.714-3.315-1.768-5.779-2.949a54.732 54.732 0 00-8.95-3.454 29.59 29.59 0 00-11.606-.916 19.808 19.808 0 00-10.57 4.535 23.652 23.652 0 00-5.496 7.74 64.718 64.718 0 00-2.4 6.018c-.238.696-.44 1.246-.586 1.667a3.875 3.875 0 01-.229.568c.028-.203.077-.403.146-.595.128-.431.303-.99.513-1.695a54.09 54.09 0 012.272-6.1 23.502 23.502 0 015.496-7.906 20.077 20.077 0 0110.781-4.671 29.424 29.424 0 0111.762.989 52.476 52.476 0 018.986 3.554c2.454 1.228 4.387 2.327 5.725 3.087l1.529.916c.185.084.362.182.532.293z" fill="#263238"/><path d="M415.947 313.364c-.064.1-4.388-2.693-9.645-6.238-5.258-3.545-9.472-6.504-9.408-6.605.064-.101 4.388 2.693 9.655 6.238 5.267 3.545 9.462 6.513 9.398 6.605zm-4.608-13.072a10.38 10.38 0 01-3.142.568 10.476 10.476 0 01-3.206-.046 21.607 21.607 0 013.17-.32 21.932 21.932 0 013.178-.202zm-18.906-2.464a8.512 8.512 0 01-1.419 2.217 9.117 9.117 0 01-1.832 2.033 8.527 8.527 0 011.419-2.207 9.58 9.58 0 011.832-2.043zm3.866 18.082a11.797 11.797 0 01-2.079-1.127 61.282 61.282 0 01-4.736-3.178 226.324 226.324 0 01-4.525-3.444 12.777 12.777 0 01-1.832-1.539 11.52 11.52 0 011.979 1.291l4.58 3.344c1.832 1.3 3.444 2.445 4.644 3.27.697.4 1.356.863 1.969 1.383z" fill="#263238"/><path d="M380.919 335.109c-3.151-.833-6.906 2.226-7.557 5.423-.65 3.197.55 6.458 1.951 9.398a47.97 47.97 0 0013.072 17.047 32.253 32.253 0 0019.923 7.328c-1.338-6.183.348-12.65-.394-18.934a24.614 24.614 0 00-21.81-21.59c-2.015-.22-4.342-.531-5.139 1.328" fill="#F54114"/><path d="M408.262 374.305a1.526 1.526 0 01-.449-.211 8.343 8.343 0 01-1.182-.787 12.308 12.308 0 01-3.114-4.159c-.495-.98-1.063-2.034-1.613-3.206l-1.694-3.747a34.883 34.883 0 00-2.079-4.002 30.497 30.497 0 00-2.868-3.903c-2.152-2.528-4.47-4.726-6.476-6.815a44.989 44.989 0 01-4.937-5.926 21.536 21.536 0 01-2.409-4.58 12.362 12.362 0 01-.421-1.356 1.72 1.72 0 01-.101-.476s.22.641.678 1.768a23.664 23.664 0 002.51 4.497 47.056 47.056 0 004.974 5.817c2.015 2.07 4.341 4.259 6.521 6.815a31.943 31.943 0 012.895 3.957 34.887 34.887 0 012.088 4.067c.578 1.319 1.136 2.574 1.649 3.756.513 1.181 1.081 2.235 1.557 3.215a12.838 12.838 0 002.913 4.149c.916.788 1.576 1.09 1.558 1.127z" fill="#263238"/><path d="M391.966 369.148c.02-.717.118-1.43.293-2.125.247-1.292.65-3.078 1.191-5.011a61.224 61.224 0 011.603-4.909 9.489 9.489 0 01.861-1.961 11.59 11.59 0 01-.568 2.061 200.443 200.443 0 00-1.466 4.928 150.007 150.007 0 00-1.319 4.965 11.808 11.808 0 01-.595 2.052zm15.654-15.169a12.835 12.835 0 01-2.216-.504 149.103 149.103 0 00-5.313-1.31c-2.08-.467-3.994-.833-5.368-1.099-.754-.1-1.499-.262-2.226-.485.762-.025 1.524.036 2.272.183 1.401.183 3.316.504 5.413.971a61.85 61.85 0 015.313 1.438c.736.191 1.448.461 2.125.806zm-27.343 4.415c.036-.827.149-1.649.339-2.455a90.763 90.763 0 011.31-5.826 82.102 82.102 0 011.713-5.725 12.44 12.44 0 01.916-2.308 15.247 15.247 0 01-.604 2.4c-.422 1.466-.999 3.49-1.585 5.743-.586 2.254-1.072 4.296-1.429 5.78a14.328 14.328 0 01-.66 2.391zm20.153-17.642c0 .119-3.939-.202-8.775-.715-4.837-.512-8.766-1.025-8.766-1.117 0-.092 3.938.201 8.784.714 4.846.513 8.775.999 8.757 1.118z" fill="#263238"/><path d="M397.544 388.439c0 .119-13.822.22-30.869.22s-30.878-.101-30.878-.22 13.822-.22 30.878-.22 30.869.101 30.869.22zm-9.608 17.789c0 .119-9.316.22-20.803.22-11.486 0-20.802-.101-20.802-.22s9.316-.22 20.802-.22c11.487 0 20.803.101 20.803.22zm-.367 2.546c0 .119-9.16.22-20.436.22s-20.436-.101-20.436-.22 9.16-.22 20.436-.22 20.436.101 20.436.22zm.733-4.644c0 .128-9.636.22-21.517.22-11.88 0-21.516-.092-21.516-.22s9.627-.22 21.516-.22c11.89 0 21.517.101 21.517.22z" fill="#455A64"/><path d="M321.956 126.848c-2.813-13.603-16.672-57.809-76.441-55.29-29.687 1.246-46.084 15.297-54.621 26.866a66.875 66.875 0 00-11.55 25.099l-.065.375h-33.113v-.458c0-.137 0-13.557 1.447-20.289l.916.183c-1.255 5.945-1.41 17.239-1.429 19.648h31.437a68.768 68.768 0 0111.615-25.07c8.62-11.744 25.254-26.006 55.336-27.27 24.503-1.026 44.114 5.66 58.257 19.886 12.779 12.824 17.459 28.158 19.108 36.136l-.897.184z" fill="#F54114"/><path d="M267.005 339.085H217.44V197.92l.541.101c46.816 8.244 67.133-12.494 75.112-25.593 9.38-15.471 10.992-34.14 4.396-49.931-4.131-9.747-17.001-32.344-48.337-31.813-15.334.266-35.935 5.102-47.046 26.637a63.786 63.786 0 00-6.741 26.033v.458h-62.178v-.449c-.055-5.239 0-23.01 0-23.184v-.513l7.666.806v11.432l44.884-.064a74.38 74.38 0 0110.992-26.28c8.089-12 23.615-26.234 51.507-26.234h.916c20.427.22 37.281 7.4 48.75 20.774 12.357 14.409 16.094 33.434 14.308 45.91 0 .239-1.173 28.946-22.745 48.063-15.05 13.346-36.237 18.961-62.984 16.689v43.886h9.233v-35.055l.495.045a97.702 97.702 0 0024.952-1.887c12.586-2.583 29.953-8.931 41.22-24.53 20.198-28.048 20.418-43.904 20.573-55.482v-2.748l-.1-2.308h13.74v.412c0 .293 2.198 28.89-21.636 60.978-14.83 19.96-32.207 32.82-48.924 36.191l-.174-.916c16.488-3.325 33.663-16.057 48.365-35.843 22.048-29.678 21.645-56.297 21.48-59.925h-11.908l.055 1.383v2.748c-.165 11.698-.385 27.728-20.738 56.005-11.414 15.846-29.019 22.286-41.779 24.906a99.854 99.854 0 01-24.732 1.923v35.019h-11.029v-45.8l.495.046c26.711 2.354 47.843-3.17 62.792-16.415 21.278-18.851 22.442-47.174 22.451-47.458 1.759-12.32-1.924-31.052-14.088-45.241-11.294-13.154-27.92-20.225-48.072-20.445-28.084-.303-43.592 13.868-51.671 25.803a72.865 72.865 0 00-10.992 26.335l-.065.385-46.541.064v-11.55l-5.835-.614v22.213h60.382a65.18 65.18 0 016.815-25.969c6.293-12.118 19.667-26.674 47.907-27.15h1.118c31.043 0 43.913 22.589 48.026 32.39 6.741 16.066 5.074 35.046-4.461 50.764-6.797 11.203-22.488 27.911-55.574 27.92a116.867 116.867 0 01-19.905-1.832v139.159h48.649v.916z" fill="#F54114"/><path d="M279.829 338.627h-.916v-82.44l.339-.092c.219-.055 21.736-5.761 42.96-22.955 19.575-15.865 42.905-45.021 42.905-93.908 0-38.408-15.572-69.25-44.884-89.218-24.264-16.488-53.43-22.342-71.026-22.342-25.969 0-88.587 6.614-109.187 67.83a124.446 124.446 0 00-3.765 17.056l-.916-.128a125.414 125.414 0 013.774-17.166c20.793-61.82 83.896-68.498 110.039-68.498 17.724 0 47.101 5.898 71.549 22.497 29.641 20.152 45.314 51.295 45.314 89.978 0 49.253-23.532 78.648-43.272 94.623a129.443 129.443 0 01-42.933 23.01l.019 81.753z" fill="#F54114"/><path d="M273.014 285.618h-.916l.064-36.851.385-.064c.101 0 10.388-1.667 23.725-8.867 12.311-6.65 29.806-19.51 43.281-43.052 19.236-33.608 15.727-59.476 15.691-59.732-2.272-33.178-15.325-59-38.784-76.797-24.503-18.595-52.743-22.543-67.39-23.249-11.45-.55-31.382 1.374-49.849 8.62-25.034 9.82-41.65 26.454-49.381 49.464l-.916-.293c7.822-23.257 24.622-40.075 49.913-49.995 18.604-7.328 38.691-9.234 50.233-8.684 14.748.705 43.199 4.699 67.903 23.44 23.679 17.963 36.842 44.014 39.132 77.421 0 .229 3.581 26.39-15.81 60.282-13.585 23.77-31.245 36.74-43.666 43.446-12.009 6.485-21.59 8.509-23.596 8.885l-.019 36.026zm-.073 45.14h-36.759v-.916h35.843l.045-28.478h.916l-.045 29.394z" fill="#F54114"/><path d="M236.182 330.758h-9.847v-64.742h10.305v56.599h-.916v-55.683h-8.473v62.91h8.931v.916zm-63.598-217.797H156.16v-.476c.531-17.248 7.64-28.552 13.511-34.991a45.708 45.708 0 0112.146-9.655l-8.693-7.53.596-.687 9.792 8.437-.65.293c-.239.119-24.522 11.615-25.731 43.693h15.077c.724-3.206 6.513-26.353 22.241-32.445l-5.13-5.404c-1.914.586-14.738 5.322-21.855 28.955l-.916-.266c7.877-25.941 22.213-29.477 22.817-29.605l.257-.055 6.476 6.77-.669.237c-16.809 5.872-22.305 32.097-22.396 32.363l-.073.366h-.376zm27.608-38.609l-20.436-18.998.623-.678 19.804 18.42a41.02 41.02 0 018.454-5.495 71.192 71.192 0 0126.995-6.998c24.732-1.74 42.328 2.93 50.142 7.556l6.787-11.367c-5.239-2.3-53.65-22.415-93.194.485l-.458-.797c42.072-24.356 93.982-.558 94.504-.311l.458.21-7.786 13.09-.394-.247c-7.483-4.635-25.062-9.416-49.995-7.658-23.743 1.64-35.092 12.375-35.193 12.485l-.311.303zm63.726 244.242h-.916l1.392-78.052h.449c26.271-.193 62.975-37.721 73.482-67.162 14.656-41.082 2.748-69.854-9.838-86.754A99.357 99.357 0 00297.7 59.66l-6.668 12.1c4.497 1.906 38.554 17.578 38.838 54.356l14.454.11v.916l-15.361-.119v-.458c0-38.866-38.353-53.998-38.738-54.154l-.494-.183 7.603-13.74.366.137a99.369 99.369 0 0131.483 27.388c12.723 17.084 24.787 46.158 9.984 87.643-5.917 16.58-18.182 33.892-33.663 47.367-14.326 12.521-29.312 20.106-40.221 20.39l-1.365 77.182zm-7.685.449h-12.504l.01-.467 1.456-80.608-.037-5.368h11.286v76.275h-.916v-75.359h-9.454l.037 4.461-1.447 80.15h11.569v.916zm79.683-98.287c-.779-.916-5.817-6.036-7.072-7.328l-.128-.137-.137-.129a.364.364 0 01-.119-.448l.348-.321c.1 0 .165 0 .384.156l.257.265c.476.44 1.346 1.329 3.087 3.096 2.308 2.345 3.664 3.774 4.067 4.26l-.687.586zM306.844 42.26l-5.632 7.141.719.568 5.633-7.143-.72-.567z" fill="#F54114"/><path d="M303.874 139.69h-2.052v-.916c1.457.055 3.335 0 5.157 0 1.823 0 3.728-.046 5.203 0v.916c-1.456-.046-3.343 0-5.166 0h-3.142zm-141.843-7.227h-.916v10.479h.916v-10.479zm84.822-51.974h-.916v9.013h.916V80.49zm82.224 112.406l-.367.839 10.498 4.595.367-.839-10.498-4.595zm-43.353 15.97l-.728.557 6.684 8.749.728-.556-6.684-8.75zM361.043 104.7l-10.75 2.987.245.882 10.75-2.987-.245-.882zm-80.472 305.824h-63.296V362.37h.916v47.238h61.464v-57.351h-61.922v-.916h62.838v59.183z" fill="#F54114"/><path d="M272.986 400.548h-46.651V372.18h37.583v16.928h-27.736v-8.162h18.173v.916h-17.257v6.33h25.904v-15.096h-35.751v26.536h44.819v-36.456h-54.337v-.916h55.253v38.288z" fill="#F54114"/><path d="M238.087 400.09h-.916v9.967h.916v-9.967zm42.026-21.947h-7.585v.916h7.585v-.916zm-35.459-5.505h-.916v8.299h.916v-8.299zm-17.861 13.566h-9.06v.916h9.06v-.916z" fill="#F54114"/><path d="M172.768 126.463l-3.206.797-1.329 1.182 1.768.448 3.893-1.117-1.126-1.31z" fill="#455A64"/><path d="M184.392 127.956l-4.855-5.917h-4.946l-3.133 3.664c.02.207.086.407.192.586a2.283 2.283 0 00-1.712.192l2.848 7.548 5.423 5.432 6.861-1.914-.678-9.591zm-7.475 2.748l-2.537-1.2a7.015 7.015 0 00-1.832-2.803c.085.009.171.009.257 0a3.07 3.07 0 00.961-.33c2.171-1.08 2.748-1.319 2.748-1.319l1.384 2.529-.981 3.123z" fill="#F54114"/><path d="M180.617 126.142a7.001 7.001 0 01-1.667-1.832 6.679 6.679 0 01-1.282-2.143c.101-.083.852.751 1.667 1.832a6.454 6.454 0 011.282 2.143zm-3.7 4.58a11.369 11.369 0 01-2.748-.787h-.101v-.119a7.74 7.74 0 00-.595-1.466 3.795 3.795 0 00-2.171-1.96 3.894 3.894 0 00-1.255.082s.073-.128.293-.238a1.83 1.83 0 011.008-.183 3.786 3.786 0 012.546 2.07c.27.5.473 1.032.605 1.585l-.138-.156c.894.292 1.751.686 2.556 1.172z" fill="#F54114"/><path d="M173.546 127.864l11.303-2.995a.812.812 0 00.568-1.026.804.804 0 00-.354-.448.807.807 0 00-.562-.101l-12.036 3.261a5.3 5.3 0 011.081 1.309z" fill="#455A64"/><path d="M87.021 269.35l6.852-3.71.256 2.546-3.444 12.953a27.619 27.619 0 01-2.656-5.808s-1.1-4.818-1.1-5.166a3.5 3.5 0 01.11-.815" fill="#F54114"/><path d="M143.116 404.139l1.164 27.572 14.885-.33-1.109-27.626-14.94.384z" fill="#455A64"/><path d="M151.59 430.52c.128 0-.101-6.046-.513-13.484-.412-7.437-.843-13.465-.962-13.456-.119.01.101 6.037.513 13.484.412 7.447.843 13.456.962 13.456z" fill="#263238"/><path d="M144.207 429.815l14.885-.385.073 1.951-14.885.33-.073-1.896zm14.61-7.264a2.24 2.24 0 00-.412-.586 10.707 10.707 0 00-3.865-2.858 7.99 7.99 0 00-3.509-.641 7.875 7.875 0 00-5.679 2.793 6.878 6.878 0 00-1.017 1.667 1.782 1.782 0 00-.201.687 14.75 14.75 0 011.456-2.143 7.923 7.923 0 015.496-2.546 9.105 9.105 0 015.762 1.941c1.264.953 1.905 1.741 1.969 1.686z" fill="#263238"/><path opacity=".3" d="M143.474 415.278l.219 2.455h14.922l-.091-2.455h-15.05z" fill="#000"/><path d="M92.928 406.072l-.531 16.534s-16.635 6.293-16.745 9.407l32.5-.412.76-25.813-15.984.284z" fill="#455A64"/><path d="M102.226 421.021a1.344 1.344 0 01.962 1.512 1.294 1.294 0 01-1.493.961 1.411 1.411 0 01-1.008-1.603 1.35 1.35 0 011.658-.833" fill="#E0E0E0"/><path d="M108.153 431.601v-2.089l-31.575 1.008a2.473 2.473 0 00-1.09 1.64l32.665-.559zm-16.048-8.885c0 .165.815.22 1.612.714.797.495 1.236 1.154 1.383 1.09.146-.064-.12-.989-1.1-1.566-.98-.577-1.932-.385-1.895-.238zm-3.408 1.502c0 .156.669.412 1.228 1.081.559.669.733 1.374.916 1.365.183-.009.247-.916-.467-1.732-.715-.815-1.677-.824-1.677-.714zm-1.86 4.168c.147 0 .348-.779-.082-1.64-.43-.861-1.19-1.2-1.255-1.072-.064.129.412.596.76 1.319.348.724.422 1.384.577 1.393zm5.468-9.545c.064.147.797-.092 1.704-.055.907.037 1.621.311 1.704.174.082-.137-.614-.696-1.686-.724-1.072-.027-1.804.486-1.722.605zm-.703-3.6c.54.136 1.107.12 1.64-.046a7.264 7.264 0 002.619-1.09c.184-.105.348-.241.485-.403a.693.693 0 00.055-.852.92.92 0 00-.705-.348 2.4 2.4 0 00-.623.101 5.665 5.665 0 00-1.007.376 5.478 5.478 0 00-1.493 1.026c-.742.723-.99 1.328-.916 1.355.073.028.43-.458 1.19-1.053a6.48 6.48 0 011.448-.861c.294-.133.601-.237.916-.312.348-.1.64-.11.732 0 .092.11 0 .083 0 .193a1.864 1.864 0 01-.357.284 8.75 8.75 0 01-.86.522 8.775 8.775 0 01-1.576.641c-.526.12-1.044.276-1.548.467z" fill="#263238"/><path opacity=".3" d="M108.629 415.479l-.11 3.811-16.021.247.147-3.453 15.984-.605z" fill="#000"/><path d="M101.887 139.827l7.877 33.343 18.742-2.492-1.374-10.635s6.833.11 7.428-6.32c.193-2.143-1.474-11.615-3.114-20.207a15.105 15.105 0 00-6.43-9.717 15.112 15.112 0 00-11.432-2.255 15.107 15.107 0 00-11.887 12.274 15.11 15.11 0 00.19 6.009z" fill="#F54114"/><path d="M119.182 120.353c1.612.586 1.2 1.383 1.539 2.107.339.724 1.749.669 3.142 1.218 1.392.55 4.58 3.106 5.432 4.699.851 1.594.338 1.787.183 2.684-.156.898 1.126 5.396 1.31 6.192.348 1.512 1.016 5.964 1.016 5.964l-1.346.705s-.705-4.873-2.29-4.846c-1.585.028-1.979 1.686-2.052 2.135a7.121 7.121 0 00-1.026 2.253c-.348 2.125-.192 5.23-.348 7.181-.247 3.014-3.554 7.475-3.554 7.475l-14.656 1.356s-6.641-15.023-7.072-18.943c-.43-3.921 1.072-9.16 3.271-12.696a17.218 17.218 0 013.883-3.948 28.842 28.842 0 013.335-1.988 15.99 15.99 0 018.161-1.612l1.072.064z" fill="#263238"/><path d="M130.549 148.74s0 .238-.321.541a2.236 2.236 0 01-1.566.65 3.092 3.092 0 01-1.259-.304 3.098 3.098 0 01-1.022-.795 5.371 5.371 0 01-1.154-2.849 9.157 9.157 0 01.834-5.414c.262-.51.658-.941 1.145-1.245.168-.124.369-.194.577-.202a4.12 4.12 0 00-1.429 1.603 9.68 9.68 0 00-.651 5.194 5.05 5.05 0 001.017 2.62 2.74 2.74 0 001.942 1.053 2.259 2.259 0 001.447-.449c.293-.229.403-.421.44-.403z" fill="#F54114"/><path d="M128.79 146.56c.046 0-.311.275-.815 0a2.129 2.129 0 01-.843-1.777 2.86 2.86 0 01.632-1.832c.321-.394.614-.513.651-.467a4.684 4.684 0 00-.797 2.29c-.015.274.026.549.121.807.094.259.24.495.428.695.312.229.614.183.623.284z" fill="#F54114"/><path d="M96.511 255.885l-6.888 28.661v133.91l20.647.614 1.832-79.619 10.378-49.271 9.554 50.636 9.59 76.221 18.384-.532s-3.123-32.261-2.573-41.275c.549-9.013-3.216-37.418-3.216-37.418s.587-47.422-.394-53.128c-1.108-6.412-2.042-27.224-2.042-28.039l-55.272-.76z" fill="#263238"/><path d="M122.451 290.464c-1.1.305-2.216.549-3.343.732a103.2 103.2 0 00-7.988 1.97c-3.086.898-5.844 1.832-7.813 2.62-1.969.787-3.188 1.236-3.215 1.172.249-.183.519-.334.806-.449a39.69 39.69 0 012.281-1.035 71.563 71.563 0 017.804-2.748 73.514 73.514 0 018.07-1.832 45.28 45.28 0 012.482-.348c.3-.074.609-.102.916-.082zm20.638-2.529a3.012 3.012 0 01-.751.358c-.486.201-1.219.458-2.125.751a42.134 42.134 0 01-14.656 1.832 27.407 27.407 0 01-2.245-.193 2.68 2.68 0 01-.815-.164 29.261 29.261 0 013.078 0 56.269 56.269 0 007.328-.422 54.97 54.97 0 007.236-1.429c.97-.295 1.955-.54 2.95-.733zm-1.511 21.902c-.092.092-4.443-4.104-9.728-9.371-5.286-5.267-9.49-9.618-9.389-9.709.101-.092 4.442 4.104 9.728 9.37 5.285 5.267 9.489 9.618 9.389 9.71zm-46.305-48.832l8.822-.311 1.08-4.69-8.665-.119-1.237 5.12zm12.706-4.965l-.815 4.965h30.979l.083-4.553-30.247-.412zm32.903.449v4.516h11.074l-.192-4.36-10.882-.156zm-37.904 103.334c-.128 0-1.722-4.9-3.554-10.992-1.832-6.091-3.234-11.129-3.105-11.166.128-.037 1.722 4.901 3.563 10.992 1.841 6.092 3.224 11.13 3.096 11.166zm42.896-4.534a66.012 66.012 0 01-4.488-6.412 64.503 64.503 0 01-4.095-6.696 63.93 63.93 0 014.498 6.412 65.507 65.507 0 014.085 6.696z" fill="#455A64"/><path d="M98.928 177.374s-11.963 4.992-13.484 10.278c-1.676 5.862-3.398 18.759-3.398 18.759v33.966s-2.574 11.45-2.089 16.268c.486 4.818 5.698 13.364 5.698 13.364l8.436-4.094 2.638-11.954.495-36.466-.916-18.073 2.62-22.048z" fill="#F54114"/><path d="M98.929 177.374l7.951-6.357.384-5.413 20.473-3.472 2.336 4.58 9.16 2.482 6.155-1.832 1.502 3.509 7.658 23.477-5.789 34.45s3.435 18.32 2.995 27.829l-55.253-.761c-1.429-1.749-1.648-4.873-1.365-8.564l-.742-46.295 4.535-23.633z" fill="#F54114"/><path d="M144.629 175.048a1.612 1.612 0 01-.467.128l-1.374.293-5.038.998a549.65 549.65 0 00-16.562 3.591 470.548 470.548 0 00-16.433 4.168l-4.91 1.346-1.355.348a1.464 1.464 0 01-.476.092c.143-.076.293-.137.449-.183l1.328-.44c1.154-.375 2.839-.916 4.919-1.493 4.167-1.218 9.957-2.748 16.414-4.305a282.279 282.279 0 0116.607-3.453c2.135-.385 3.866-.678 5.075-.852l1.383-.202a1.91 1.91 0 01.44-.036zm-36.037 52.88c.373-.392.774-.756 1.2-1.09l3.325-2.867a232.616 232.616 0 0010.616-9.819 235.455 235.455 0 009.976-10.479l2.912-3.28c.339-.421.71-.816 1.109-1.181a11.86 11.86 0 01-.962 1.3c-.641.816-1.594 1.97-2.803 3.38a174.2 174.2 0 01-9.893 10.599 170.927 170.927 0 01-10.744 9.737 84.074 84.074 0 01-3.426 2.748c-.411.352-.849.67-1.31.952zm36.896-12.531c-.082.134-.177.26-.284.376l-.861 1.008c-.76.916-1.896 2.116-3.325 3.609a143.841 143.841 0 01-24.86 20.564 110.41 110.41 0 01-4.159 2.592 42.97 42.97 0 00-1.154.66 1.47 1.47 0 01-.421.201s.119-.11.366-.284l1.109-.742c.971-.623 2.363-1.548 4.067-2.702a174.184 174.184 0 0012.897-9.673 170.485 170.485 0 0011.908-10.855 276.808 276.808 0 003.426-3.49l.916-.916c.238-.247.357-.357.375-.348zm-10.918 36.411a56.8 56.8 0 003.811-6.265 55.811 55.811 0 002.501-6.888 7.5 7.5 0 01-.312 2.152 24.732 24.732 0 01-1.759 4.947 24.4 24.4 0 01-2.748 4.461c-.417.6-.92 1.137-1.493 1.593z" fill="#263238"/><path d="M145.645 168.947l20.683-.843 10.076-4.818 1.126-14.152-.916-10.012 8.702-2.583s7.228 18.549 6.99 25.3c-.083 2.272-.22 4.507-.358 6.485a12.063 12.063 0 01-6.412 9.783l-31.025 16.259-8.866-25.419z" fill="#F54114"/><path d="M96.18 208.482a18.704 18.704 0 01-1.2-4.095 19.24 19.24 0 01-.742-4.214 19.004 19.004 0 011.21 4.095c.4 1.373.645 2.786.732 4.214z" fill="#263238"/><path d="M96.007 201.685c.042.18.063.365.064.55 0 .421.045.916.082 1.593.055 1.448.12 3.426.21 5.854.129 5.001.312 11.798.514 19.318a66.298 66.298 0 01-.266 10.653c-.21 1.64-.678 3.151-.916 4.58a12.242 12.242 0 00-.146 2.07c0 .669-.092 1.319-.138 1.942a21.8 21.8 0 00.156 5.798c.104.512.303 1 .586 1.439.22.274.366.403.357.421-.009.018 0 0-.119-.082a1.613 1.613 0 01-.311-.284 3.728 3.728 0 01-.687-1.448 19.79 19.79 0 01-.32-5.862c0-.623.072-1.264.1-1.942-.015-.708.028-1.415.128-2.116.238-1.466.678-2.94.87-4.58.348-3.519.425-7.059.23-10.589-.147-7.52-.275-14.317-.376-19.318 0-2.428 0-4.415-.055-5.854v-1.593a2.937 2.937 0 01.037-.55zm56.105-14.931a13.389 13.389 0 01-.971-2.272 124.198 124.198 0 01-1.951-5.633 122.745 122.745 0 01-1.704-5.716 12.51 12.51 0 01-.541-2.418c.36.743.649 1.519.861 2.317.522 1.603 1.145 3.536 1.832 5.67.687 2.135 1.31 4.058 1.832 5.661.292.774.507 1.575.642 2.391zM89.971 246.66a8.682 8.682 0 01-5.313-6.476 24.135 24.135 0 002.19 3.664 24.299 24.299 0 003.123 2.812zm6.53 14.07a5.497 5.497 0 01-1.291 1.64 12.08 12.08 0 01-9.316 3.334 5.49 5.49 0 01-2.042-.458c0-.073.796.092 2.06.119 3.32.08 6.552-1.075 9.069-3.243.953-.824 1.456-1.447 1.52-1.392zm90.63-118.842c0 .138-2.272.477-4.956 1.384-2.684.906-4.708 1.996-4.781 1.832a18.194 18.194 0 019.737-3.252v.036zm-2.703-3.719c0 .065-.192.147-.266.422a.423.423 0 00.46.575.41.41 0 00.201-.093.426.426 0 00.143-.403.435.435 0 00-.098-.198c-.165-.229-.385-.248-.394-.312-.009-.064.274-.21.632.083a.803.803 0 01.293.714.805.805 0 01-.696.678.782.782 0 01-.97-.739.787.787 0 01.118-.443c.265-.393.586-.348.577-.284zm-54.3 28.543a3.3 3.3 0 01-.916.238l-2.482.467-8.189 1.493-8.19 1.548-2.482.449a3.77 3.77 0 01-.916.11 3.39 3.39 0 01.916-.293 68.806 68.806 0 012.455-.595c2.079-.486 4.965-1.09 8.162-1.686a183.004 183.004 0 018.244-1.355 86.436 86.436 0 012.509-.321c.294-.052.592-.071.889-.055zM93.03 199.047a2.751 2.751 0 01-.21-.715 15.343 15.343 0 01-.257-1.987 39.612 39.612 0 01.229-6.596c.265-2.555.613-4.864.842-6.522a18.57 18.57 0 01.422-2.693c.069.917.038 1.838-.092 2.748-.137 1.677-.43 3.985-.696 6.532a54.017 54.017 0 00-.367 6.531c.028 1.658.211 2.683.129 2.702zm22.569 17.037c-.119-.064 2.821-5.871 6.559-12.988 3.737-7.118 6.87-12.825 6.989-12.76.119.064-2.821 5.871-6.568 12.989-3.746 7.117-6.861 12.851-6.98 12.759zm43.071-32.765c-.2.694-.464 1.369-.787 2.015a69.918 69.918 0 00-1.832 4.873 52.317 52.317 0 00-1.384 5.011c-.119.71-.3 1.409-.54 2.088a8.017 8.017 0 01.211-2.161c.3-1.722.719-3.421 1.255-5.084a35.329 35.329 0 011.969-4.864 8.391 8.391 0 011.108-1.878z" fill="#263238"/><path d="M91.373 194.384a8.825 8.825 0 01-1.173.321c-.724.183-1.722.44-2.821.769-1.1.33-2.07.651-2.748.916a8.36 8.36 0 01-1.154.376 5.86 5.86 0 011.108-.504 25.18 25.18 0 012.748-.916c1.072-.284 2.107-.568 2.849-.714.389-.117.787-.2 1.19-.248zm33.965 1.851c0 .046-6.495 1.969-14.537 4.287-8.042 2.317-14.62 4.158-14.62 4.112 0-.045 6.495-1.978 14.547-4.296 8.051-2.317 14.592-4.158 14.61-4.103zm26.517-7.731c0 .045-5.807 2.198-12.998 4.799-7.19 2.602-13.044 4.672-13.062 4.626-.018-.046 5.798-2.198 12.998-4.809 7.2-2.61 13.044-4.671 13.062-4.616zm-2.428-9.389l-.568.165-1.64.439-6.045 1.594a1473.59 1473.59 0 01-19.987 5.102c-7.823 1.933-14.922 3.6-20.07 4.745l-6.11 1.319-1.667.339c-.385.082-.586.11-.586.11l.577-.147 1.658-.375 6.091-1.383a1170.39 1170.39 0 0020.061-4.791l19.996-5.047 6.064-1.539 1.649-.403.577-.128zm-11.45-10.571c0 .055-8.692 2.263-19.437 4.928-10.745 2.666-19.474 4.791-19.483 4.736-.01-.055 8.683-2.254 19.437-4.919 10.754-2.666 19.474-4.8 19.483-4.745zm19.622.366a.634.634 0 010 .174l.064.495c.046.421.101 1.044.147 1.832a50.768 50.768 0 010 6.018 49.003 49.003 0 01-.77 5.973c-.146.76-.275 1.364-.385 1.832 0 .164-.082.329-.119.485-.036.156-.055.165-.055.156v-.165l.083-.495.33-1.786c.256-1.521.549-3.664.705-5.963.126-1.998.15-4 .073-6 0-.678-.064-1.273-.091-1.832v-.495a.844.844 0 01.018-.229zm14.179 15.847v-.174l-.073-.495a45.42 45.42 0 00-.266-1.832 47.96 47.96 0 00-1.328-5.954 50.41 50.41 0 00-2.098-5.734 62.795 62.795 0 00-.778-1.685l-.211-.458a1.441 1.441 0 01-.064-.165s.046 0 .101.147c.055.146.155.293.247.439.211.385.495.916.824 1.667a41.016 41.016 0 012.162 5.735 42.657 42.657 0 011.283 5.99c.11.779.174 1.411.201 1.832v.504a.8.8 0 010 .183zm11.752-7.053a5.764 5.764 0 01-.238-.595l-.604-1.64a61.609 61.609 0 00-2.318-5.285 57.413 57.413 0 00-2.83-5.02c-.339-.54-.66-1.035-.916-1.475a4.838 4.838 0 01-.33-.549 4.9 4.9 0 01.394.503c.247.33.586.825.998 1.448a49.485 49.485 0 012.886 5.01 48.778 48.778 0 012.271 5.322c.248.696.431 1.264.55 1.658.064.203.11.412.137.623zm7.915-18.796a2.41 2.41 0 01-.568-.074l-1.53-.274a138.625 138.625 0 00-5.056-.797 128.682 128.682 0 00-5.084-.587l-1.548-.146a4.325 4.325 0 01-.568-.073 2.25 2.25 0 01.568 0c.366 0 .916 0 1.557.082 1.31.092 3.114.266 5.102.54 1.988.275 3.774.587 5.056.852a34.01 34.01 0 011.521.33c.186.036.37.085.55.147zm-2.199-12.495h-1.694a25.08 25.08 0 00-4.067.349c-1.34.227-2.66.558-3.948.989l-1.164.403c-.14.066-.287.115-.439.146.128-.087.266-.158.412-.21.265-.128.659-.284 1.154-.467a22.004 22.004 0 013.966-1.054 22.732 22.732 0 014.095-.293c.416.004.832.028 1.246.073.148.002.296.023.439.064zm-72.392 65.183c0 .055-4.516 1.108-10.076 2.363a673.822 673.822 0 01-10.176 2.217c-.01 0 4.515-1.108 10.076-2.363a674.78 674.78 0 0110.176-2.217zm6.412 2.308a25.047 25.047 0 01-3.206-.11 25.004 25.004 0 01-3.197-.302c1.07-.021 2.14.016 3.206.11 1.07.045 2.138.146 3.197.302zm29.524-11.276s-5.231 1.448-11.707 3.124c-6.476 1.676-11.743 2.995-11.752 2.94-.009-.055 5.221-1.447 11.707-3.123 6.485-1.677 11.734-2.996 11.752-2.941zm-43.885 24.247c0 .055-2.62.568-5.881 1.145-3.26.577-5.926.98-5.926.98s2.629-.559 5.89-1.136c3.26-.577 5.908-1.035 5.917-.989zm31.244-7.035c0 .046-5.963 1.044-13.337 2.217-7.374 1.172-13.365 2.088-13.365 2.033 0-.055 5.963-1.044 13.337-2.217 7.374-1.172 13.365-2.033 13.365-2.033zm10.287.916a1.411 1.411 0 01-.412.064l-1.109.101c-.916.082-2.226.201-3.664.385-1.438.183-2.748.375-3.664.522l-1.099.183a1.36 1.36 0 01-.403 0l.394-.11c.256-.064.623-.146 1.09-.238a53.106 53.106 0 013.664-.586 50.065 50.065 0 013.664-.33h1.117c.141-.013.282-.01.422.009zm-31.354 17.541c-.071.04-.144.074-.22.101l-.641.275c-.559.229-1.384.54-2.4.916a63.843 63.843 0 01-16.543 3.389c-1.081.073-1.951.11-2.565.119h-.916.933c.605 0 1.475-.091 2.556-.174a73.985 73.985 0 008.354-1.2 72.694 72.694 0 008.152-2.189c1.026-.339 1.832-.632 2.418-.843l.651-.238.22-.156zm31.316-5.193a2.985 2.985 0 01-.329.128l-.962.33c-.843.293-2.061.687-3.573 1.154a201.96 201.96 0 01-11.908 3.215 169.141 169.141 0 01-12.146 2.372c-1.566.257-2.839.44-3.719.55l-1.007.128a3.054 3.054 0 01-.358 0l.349-.064 1.007-.165 3.664-.604a207.11 207.11 0 0012.128-2.437 210.442 210.442 0 0011.963-3.16l3.582-1.081.98-.302.329-.064zm-14.133 15.517l-.403.082-1.163.202c-1.017.165-2.492.394-4.314.632a181.555 181.555 0 01-28.68 1.557c-1.832-.046-3.326-.11-4.351-.174l-1.191-.064h-.403 1.603c1.026 0 2.51.082 4.351.11 3.664.064 8.757 0 14.363-.266s10.653-.824 14.298-1.282c1.832-.229 3.298-.431 4.315-.577l1.181-.165.394-.055zm14.674-2.134a2.235 2.235 0 01-.504 0h-5.908c-1.786 0-3.371.091-4.534.155l-1.374.064a2.359 2.359 0 01-.504 0c.166-.037.334-.062.504-.073l1.365-.128a73.117 73.117 0 014.58-.211c1.832-.027 3.38 0 4.58.046l1.374.082.421.065zm-54.666-36.576c0 .045-3.27.677-7.328 1.401s-7.328 1.273-7.328 1.218c0-.055 3.27-.678 7.328-1.401 4.058-.724 7.319-1.273 7.328-1.218zm-.496 14.372c0 .045-3.05.393-6.824.76-3.774.366-6.851.623-6.851.568 0-.055 3.05-.394 6.833-.761 3.783-.366 6.842-.622 6.842-.567zm1.237 11.55c0 .055-3.17.193-7.09.312s-7.09.174-7.09.119c0-.055 3.17-.192 7.09-.312 3.92-.119 7.09-.174 7.09-.119zm-2.666 14.235a2.845 2.845 0 01-.522 0c-.33 0-.815 0-1.41-.092a29.612 29.612 0 01-9.06-2.29 19.3 19.3 0 01-1.282-.595 1.845 1.845 0 01-.449-.256c.164.05.323.114.476.192.312.128.751.321 1.31.54a36.393 36.393 0 004.415 1.439c1.508.376 3.037.658 4.58.842l1.402.147c.182.008.363.033.54.073zm.744 3.957a3.906 3.906 0 01-.468.376c-.311.238-.769.558-1.346.916a38.07 38.07 0 01-4.708 2.656 37.543 37.543 0 01-5.047 1.96c-.67.193-1.21.348-1.585.431a5.103 5.103 0 01-.586.128c.183-.084.373-.151.567-.201.376-.11.916-.275 1.558-.495a43.748 43.748 0 009.728-4.58 21.881 21.881 0 001.374-.916c.162-.107.334-.199.513-.275z" fill="#E0E0E0"/><path d="M104.763 256.81v-.724c0-.476.046-1.227.073-2.097.064-1.832.147-4.489.247-7.704.184-6.504.339-15.49.266-25.419a746.273 746.273 0 00-.623-25.419c-.146-3.215-.275-5.826-.357-7.694 0-.871-.073-1.567-.101-2.098-.027-.531 0-.724 0-.724s0 .248.055.724.101 1.209.101 2.125c.119 1.832.265 4.452.412 7.704a645.06 645.06 0 01.687 25.419c.073 9.929-.11 18.924-.321 25.428-.11 3.252-.219 5.88-.311 7.694l-.11 2.098c.009.439-.018.687-.018.687zm16.205-51.205c-.055 0-.769-5.358-1.594-11.972-.824-6.613-1.447-11.981-1.392-11.99.055-.009.76 5.349 1.585 11.972.824 6.623 1.447 11.981 1.401 11.99zm-1.475 10.846a33.86 33.86 0 01-.623-3.591c-.284-1.988-.476-3.609-.431-3.618.271 1.185.479 2.384.623 3.591a33.06 33.06 0 01.431 3.618zm3.746 19.694c-.055 0-.137-4.626-.183-10.333-.046-5.706-.046-10.341 0-10.341s.137 4.626.192 10.341c.055 5.716.046 10.333-.009 10.333zm-.293 20.381c-.046 0-.66-4.186-1.365-9.353-.705-5.166-1.237-9.361-1.182-9.37.055-.009.669 4.177 1.374 9.343.706 5.166 1.228 9.334 1.173 9.38zm18.119-39.434c-.055 0-1.456-8.583-3.142-19.172-1.685-10.589-3.013-19.236-2.958-19.236.054 0 1.456 8.574 3.141 19.172a1899.535 1899.535 0 012.959 19.236zm-2.291 24.97c-.045 0-.522-3.81-1.062-8.519-.541-4.708-.916-8.546-.916-8.546s.531 3.811 1.072 8.519c.54 4.708.961 8.546.906 8.546zm40.478-74.507a33.588 33.588 0 01-3.664 2.913 42.32 42.32 0 01-4.387 2.656 47.552 47.552 0 01-5.716 2.537 48.87 48.87 0 01-6.018 1.695 41.455 41.455 0 01-5.057.733 35.403 35.403 0 01-4.708.119h1.246c.806 0 1.988-.064 3.426-.202a45.585 45.585 0 005.038-.769 50.39 50.39 0 005.99-1.713 49.725 49.725 0 005.698-2.51 45.52 45.52 0 004.369-2.62c1.2-.815 2.144-1.52 2.748-2.033l.733-.577.302-.229zm.083.018a.68.68 0 010-.238c0-.211.046-.44.064-.687.073-.705.165-1.557.266-2.537.201-2.144.448-5.103.595-8.382.146-3.279.174-6.247.156-8.4v-3.48a.862.862 0 010 .238c0 .22 0 .439.045.696 0 .605.065 1.475.092 2.546 0 2.153 0 5.13-.101 8.409-.1 3.28-.412 6.247-.659 8.382a67.468 67.468 0 01-.321 2.537c0 .247-.073.467-.101.678a2.231 2.231 0 01-.036.238z" fill="#E0E0E0"/><path d="M187.02 143.207s.055.22.138.642c.082.421.22 1.044.412 1.832.376 1.593 1.035 3.856 1.786 6.686.978 3.3 1.393 6.74 1.228 10.177a14.114 14.114 0 01-5.845 10.772 50.96 50.96 0 01-5.496 3.582c-1.832 1.081-3.554 2.107-5.23 3.068a301.8 301.8 0 01-15.141 8.162l-1.686.843-.595.275.577-.312 1.667-.916c1.456-.751 3.554-1.832 6.119-3.233a419.02 419.02 0 008.968-5.011 332.958 332.958 0 005.23-3.087 52.364 52.364 0 005.432-3.572 13.95 13.95 0 005.78-10.626 31.021 31.021 0 00-1.182-10.131c-.733-2.83-1.374-5.111-1.731-6.705-.357-1.594-.431-2.446-.431-2.446zM85.592 240.294v-.568c0-.366.073-.916.128-1.621l.486-5.954c.393-5.029.915-11.981 1.337-19.666.421-7.686.705-14.656.916-19.704.082-2.473.146-4.497.192-5.972 0-.659.019-1.2.055-1.621v-.568 2.189c0 1.475-.073 3.499-.128 5.982a672.23 672.23 0 01-.824 19.703c-.431 7.694-.916 14.656-1.393 19.666-.22 2.464-.412 4.489-.54 5.954-.073.66-.128 1.2-.165 1.612a7.716 7.716 0 01-.064.568zM88 266.556s0-.073-.092-.22c-.091-.146-.128-.412-.201-.65a48.551 48.551 0 01-.669-2.418 67.49 67.49 0 01-1.511-8.153 64.593 64.593 0 01-.458-8.244c0-1.062 0-1.923.073-2.519v-.916a.92.92 0 010 .238v3.197c.025 2.756.2 5.508.522 8.244a75.178 75.178 0 001.447 8.134c.248 1.035.458 1.832.614 2.437.067.238.122.458.165.659l.11.211zm5.854-2.748v-2.473c0-1.658 0-3.957.064-6.779 0-5.715.074-13.621 0-22.35-.073-8.729-.201-16.644-.33-22.36-.073-2.821-.118-5.12-.164-6.778v-2.473.641c0 .421 0 1.081.082 1.832 0 1.658.12 3.957.21 6.778.166 5.716.33 13.621.395 22.36.064 8.739 0 16.635-.073 22.36 0 2.812-.083 5.12-.12 6.769 0 .76 0 1.374-.045 1.832-.046.458-.019.641-.019.641zm11.331-79.445c-.055 0-.229-2.583-.394-5.771-.165-3.187-.247-5.77-.192-5.779.055-.01.229 2.583.385 5.77.155 3.188.256 5.771.201 5.78zm13.566-3.81c-.055 0-.312-2.629-.577-5.881-.266-3.252-.431-5.899-.385-5.899.046 0 .311 2.629.577 5.881.266 3.251.43 5.89.385 5.899zm14.757-3.362c-.055 0-.797-2.391-1.658-5.368-.861-2.977-1.521-5.404-1.475-5.422.046-.019.797 2.39 1.658 5.367.861 2.977 1.521 5.405 1.475 5.423zm-4.883-13.383a.726.726 0 01-.22.055l-.641.119-2.364.412c-1.987.349-4.735.862-7.749 1.494a257.879 257.879 0 00-7.704 1.74l-2.326.568-.632.146a.588.588 0 01-.229 0l.22-.073.622-.183 2.309-.623c1.96-.513 4.681-1.172 7.703-1.832 3.023-.659 5.771-1.117 7.768-1.438l2.363-.348.651-.083a.895.895 0 01.229.046z" fill="#E0E0E0"/><path d="M110.645 170.431a18.331 18.331 0 01-.055-2.62c-.016-.872.026-1.744.128-2.61.087.87.108 1.746.064 2.619.017.873-.029 1.745-.137 2.611zm13.437-2.372a17.243 17.243 0 01-.531-2.355 14.482 14.482 0 01-.348-2.39c.428 1.555.734 3.142.916 4.745h-.037z" fill="#E0E0E0"/><path d="M433.626 431.729c0 .128-90.391.238-201.869.238-111.477 0-201.886-.11-201.886-.238s90.373-.238 201.886-.238c111.514 0 201.869.101 201.869.238zM61.739 95.466a2.753 2.753 0 00-.413 0H60.1a12.7 12.7 0 00-1.997.192c-.385.064-.815.1-1.255.192l-1.42.348a23.177 23.177 0 00-13.74 10.076 23.12 23.12 0 00-3.664 11.386 23.37 23.37 0 003.234 13.31 23.818 23.818 0 0011.395 9.911 23.038 23.038 0 007.905 1.74 22.402 22.402 0 008.244-1.026l.238-.073h-.192l13.822 4.791.559.192-.174-.568a5668.464 5668.464 0 00-3.59-11.505l-.056.275a23.656 23.656 0 005.496-20.463 23.191 23.191 0 00-3.563-8.519 23.811 23.811 0 00-5.496-5.707 26.57 26.57 0 00-2.867-1.832c-.89-.47-1.808-.885-2.748-1.246a19.728 19.728 0 00-2.354-.76c-.7-.2-1.413-.347-2.135-.44-.65-.091-1.218-.183-1.713-.229h-2.024a1.18 1.18 0 00-.265 0 .78.78 0 00.265 0l.76.064 1.246.092c.495.055 1.063.165 1.695.266a15.72 15.72 0 012.107.485c.833.218 1.65.494 2.445.825.94.37 1.857.791 2.748 1.264a26.51 26.51 0 012.803 1.832A23.873 23.873 0 0181.14 106a22.895 22.895 0 013.445 8.372 23.189 23.189 0 01-5.496 19.987l-.11.119v.156c1.148 3.664 2.335 7.505 3.563 11.523l.385-.376-13.814-4.799h-.192l-.22.082a22.013 22.013 0 01-8.06.998 22.747 22.747 0 01-7.704-1.685 23.36 23.36 0 01-11.139-9.645 23.336 23.336 0 01.275-24.183A23.195 23.195 0 0155.51 96.473l1.392-.366c.44-.11.861-.156 1.255-.22a12.24 12.24 0 011.97-.257l1.218-.091a2.53 2.53 0 00.394-.073z" fill="#263238"/><path d="M70.32 118.778a7.992 7.992 0 00-4.245-6.951 7.997 7.997 0 10-7.04 14.352v2.015l7.008-.101v-2.143a8 8 0 004.278-7.172z" fill="#FAFAFA"/><path d="M70.321 118.778c.03.2.03.404 0 .604a8.104 8.104 0 01-.247 1.741 7.883 7.883 0 01-1.145 2.537 8.168 8.168 0 01-2.748 2.464l.091-.156v2.327h-.192l-6.998.146h-.23v-2.216l.13.201a8.245 8.245 0 01-4.58-5.404 8.17 8.17 0 01.475-5.496 8.317 8.317 0 013.435-3.774 8.991 8.991 0 012.272-.843 8.746 8.746 0 012.272-.156 8.186 8.186 0 013.838 1.274 7.986 7.986 0 013.398 4.653c.2.689.278 1.409.23 2.125a15.288 15.288 0 00-.404-2.07 7.916 7.916 0 00-7.09-5.588 8.348 8.348 0 00-2.162.174 8.686 8.686 0 00-2.134.816 7.84 7.84 0 00-3.26 3.59 7.67 7.67 0 00-.44 5.167 7.792 7.792 0 004.296 5.102l.137.064v2.162l-.229-.22 7.007-.074-.192.184v-2.245h.092a8.059 8.059 0 003.902-4.726 12.65 12.65 0 00.476-2.363z" fill="#263238"/><path d="M63.534 128.093a.927.927 0 010-.1v-.284c0-.257.064-.632.128-1.109a25.69 25.69 0 01.293-1.74c.157-.767.39-1.515.696-2.235.17-.424.38-.829.633-1.209a1.58 1.58 0 01.54-.504.825.825 0 01.76 0 .52.52 0 01.257.311.543.543 0 010 .413 1.126 1.126 0 01-.605.54 2.185 2.185 0 01-1.705-.109 2.191 2.191 0 01-1.107-1.302 1.639 1.639 0 01-.064-.916.716.716 0 01.714-.568.493.493 0 01.413.275c.083.148.109.32.073.486a1.56 1.56 0 01-.55.806 2.374 2.374 0 01-1.832.568 2.07 2.07 0 01-1.566-1.127 1.234 1.234 0 01-.073-.971.66.66 0 01.348-.357.618.618 0 01.494 0 .824.824 0 01.34.348c.077.141.12.297.128.458a2.364 2.364 0 01-1.21 2.272 2.437 2.437 0 01-1.649.256 1.267 1.267 0 01-.732-.375.636.636 0 01-.055-.77c.093-.1.22-.162.357-.174a.69.69 0 01.385.064c.218.123.392.312.494.541.211.43.376.852.55 1.255a71.895 71.895 0 011.456 3.838c.156.448.275.806.358 1.053l.082.275v.101-.092l-.1-.275c-.083-.247-.211-.604-.367-1.053a77.91 77.91 0 00-1.484-3.82c-.174-.403-.348-.824-.55-1.246a1.085 1.085 0 00-.467-.504.537.537 0 00-.64.092.559.559 0 00.054.669c.188.182.428.3.687.339.54.104 1.102.017 1.585-.248a2.335 2.335 0 001.062-1.31 2.17 2.17 0 00.101-.916.866.866 0 00-.394-.659.46.46 0 00-.412 0 .503.503 0 00-.293.302 1.081 1.081 0 00.073.916 1.969 1.969 0 001.484 1.081 2.281 2.281 0 001.777-.549 1.47 1.47 0 00.522-.752.623.623 0 00-.064-.421.412.412 0 00-.339-.229.578.578 0 00-.394.137.699.699 0 00-.22.358c-.068.304-.049.622.055.916a2.154 2.154 0 001.1 1.264 2.107 2.107 0 001.593.091 1.08 1.08 0 00.568-.494.469.469 0 00-.192-.614.76.76 0 00-.687 0 1.416 1.416 0 00-.513.476 7.13 7.13 0 00-.632 1.191 11.54 11.54 0 00-.705 2.217 26.845 26.845 0 00-.312 1.731c-.073.476-.11.852-.146 1.108-.037.257 0 .22 0 .294a.682.682 0 01-.101-.01zm2.016 1.301l-6.01.092a.448.448 0 01-.322-.122.446.446 0 01-.136-.318.442.442 0 01.44-.458l6.018-.092a.462.462 0 01.32.125.453.453 0 01.107.49.444.444 0 01-.244.248.452.452 0 01-.174.035zm.008.394l-6.019.092a.457.457 0 00-.314.137.455.455 0 00.333.769h.66l.915 1.649a.561.561 0 00.522.302h2.153a.576.576 0 00.504-.329l.824-1.677h.458a.457.457 0 100-.916l-.036-.027z" fill="#263238"/><path opacity=".2" d="M57.113 113.877a5.76 5.76 0 011.585-1.081 4.444 4.444 0 011.227-.385c.303 0 .477 0 .495.055.018.055-.568.376-1.374.916a6.9 6.9 0 00-2.41 2.822 7.016 7.016 0 00-.494 3.664c.128.98.367 1.575.238 1.639-.128.064-.201-.073-.375-.32a4.345 4.345 0 01-.54-1.164 6.224 6.224 0 01-.248-1.914 6.343 6.343 0 01.522-2.317m6.604-3.005c-.504 0-.916-.128-1.007-.394-.092-.265.064-.284.247-.394.229-.129.488-.196.751-.192.265-.013.528.047.76.174.184.11.275.256.257.385" fill="#fff"/><path d="M64.185 132.518s-.156-.055-.413-.119a3.318 3.318 0 00-1.025-.11 3.435 3.435 0 00-1.008.201c-.247.092-.394.165-.403.156a1.34 1.34 0 01.376-.22 2.91 2.91 0 012.079-.091c.142.034.276.096.394.183zm.951-1.796s-1.09.064-2.427.083c-1.338.018-2.428 0-2.428 0s1.081-.064 2.428-.092c1.346-.027 2.427-.018 2.427.009zm-.366.715a2.654 2.654 0 01-.595.073c-.366 0-.916.055-1.429.073-.513.019-1.071 0-1.438 0-.198.02-.397.02-.595 0h3.463c.195-.06.394-.109.595-.146z" fill="#455A64"/><path d="M56.078 110.955c-.11.083-.54-.302-.98-.852-.44-.549-.697-1.099-.596-1.099.101 0 .54.293.971.852.43.559.706.98.605 1.099zm5.615-2.262a6.273 6.273 0 01-.458-2.336 6.249 6.249 0 010-2.391c.31.743.465 1.54.458 2.345a5.8 5.8 0 010 2.382zm6.017-.66c.11.073-.064.531-.385 1.008-.32.476-.668.815-.778.742-.11-.074.064-.523.384-1.008.321-.486.669-.815.779-.742z" fill="#263238"/><path d="M339.726 130.658a5.635 5.635 0 00-4.351-1.282l-11.367-.165a8.314 8.314 0 01-4.992-1.365 8.058 8.058 0 01-3.133-4.012l-.458-1.475c-.916-2.968-1.887-6.036-3.041-8.949a46.013 46.013 0 00-2.272-4.965c-.412-.797-.916-1.557-1.374-2.336a38.567 38.567 0 00-1.465-2.253 65.956 65.956 0 00-31.703-24.732 76.79 76.79 0 00-35.862-3.774 83.505 83.505 0 00-15.892 3.664l-3.664 1.31c-.77.302-1.53.614-2.272.916l-1.227.504a52.055 52.055 0 00-6.513 3.352 46.533 46.533 0 00-10.433 8.61 43.878 43.878 0 00-3.829 4.901c-.971 1.457-1.924 3.032-2.995 4.965-1.365 2.455-2.565 4.773-3.719 7.017l-1.1 2.125-.778 1.484a48.492 48.492 0 01-3.472 5.945c-3.581 5.001-7.42 6.686-8.922 7.181a8.72 8.72 0 01-1.236.366l-.394.092-.531.092a6.005 6.005 0 01-.706.091l-1.044.083a.334.334 0 00-.311.357.34.34 0 00.338.33h1.054c.267-.02.533-.054.797-.101l.54-.083.403-.091a9.01 9.01 0 001.338-.376c1.566-.494 5.596-2.216 9.343-7.401a47.735 47.735 0 003.572-6.055c.257-.476.513-.971.779-1.474.375-.706.751-1.429 1.136-2.162a364.713 364.713 0 013.664-6.934c1.071-1.906 2.015-3.463 2.967-4.892a43.152 43.152 0 013.765-4.781 45.325 45.325 0 0110.314-8.5 50.744 50.744 0 016.412-3.28l1.219-.504c.742-.311 1.484-.623 2.235-.916l3.609-1.291a82.838 82.838 0 0115.7-3.555 75.856 75.856 0 0135.358 3.765 64.96 64.96 0 0131.144 24.375c.448.66.961 1.42 1.429 2.217.467.797.916 1.502 1.346 2.271a45.704 45.704 0 012.208 4.855c1.135 2.867 2.042 5.78 3.004 8.867l.476 1.502a9.157 9.157 0 003.564 4.58 9.434 9.434 0 005.633 1.567l11.432.165a4.635 4.635 0 013.499.98 4.38 4.38 0 011.072 3.49l-.055 1.511c0 .916-.064 1.832-.119 2.748-.046.513-.083 1.035-.129 1.548a90.996 90.996 0 01-.247 2.748 107.009 107.009 0 01-3.38 17.166 124.168 124.168 0 01-14.876 32.921 108.847 108.847 0 01-13.044 16.818 76.357 76.357 0 01-7.703 7.08 77.781 77.781 0 01-8.528 5.854 99.262 99.262 0 01-18.604 8.244l-1.319.43c-1.136.376-2.309.76-3.472 1.099l-2.4.724a9.62 9.62 0 00-2.418 1.072 8.758 8.758 0 00-3.389 3.984 8.494 8.494 0 00-.641 2.565c-.046.614-.046 1.2 0 1.768v.742c0 18.723-.431 36.383-.852 53.467-.165 6.723-.33 13.291-.458 19.666a18.45 18.45 0 00.43 4.269 6.92 6.92 0 002.089 3.856 4.13 4.13 0 004.387.403 5.005 5.005 0 001.722-1.392 6.497 6.497 0 001.045-1.887 21.774 21.774 0 00.961-6.916v-.998c.055-2.473 0-4.919 0-7.328v-8.015a37.7 37.7 0 01.55-6.641 4.07 4.07 0 01.54-1.402 3.41 3.41 0 011.21-.852 3.083 3.083 0 012.748-.064 3.249 3.249 0 011.172 2.538c.041.747.041 1.496 0 2.244v.971l-.531 42.612a13.483 13.483 0 000 3.032 5.04 5.04 0 001.062 2.794 2.41 2.41 0 001.411.751c.467.055.916.11 1.301.119.824.046 1.621.064 2.445.064h.559c2.684 0 5.002-.073 6.889-.137l5.193-.22c1.081-.055 1.64-.101 1.64-.101a.337.337 0 00.311-.357.378.378 0 00-.348-.33s-.549 0-1.63.055l-5.377.165c-1.97.055-4.415.119-7.237.092-.833 0-1.593 0-2.381-.074h-.385a2.318 2.318 0 01-1.74-.568 4.028 4.028 0 01-.843-2.326 12.352 12.352 0 01.046-2.895l.65-42.639v-.962c.046-.787.046-1.576 0-2.364a6.23 6.23 0 00-.412-1.749 3.061 3.061 0 00-1.218-1.53 3.132 3.132 0 00-1.915-.485 5.463 5.463 0 00-1.832.467 4.222 4.222 0 00-1.594 1.154 4.78 4.78 0 00-.742 1.832 39.078 39.078 0 00-.586 6.76v.458c-.046 2.226 0 4.424 0 6.76v9.087c.05 2.248-.259 4.49-.916 6.641a4.388 4.388 0 01-2.271 2.647 3.062 3.062 0 01-3.252-.266 6.058 6.058 0 01-1.713-3.27 17.26 17.26 0 01-.394-4.003c.128-6.238.293-12.65.458-19.236.44-17.22.916-35.027.916-53.934v-2.409a7.325 7.325 0 01.559-2.216 7.54 7.54 0 012.949-3.463 8.02 8.02 0 012.134-.916l2.4-.724c1.173-.348 2.364-.732 3.509-1.108l1.31-.43a100.795 100.795 0 0018.851-8.272 80.25 80.25 0 008.665-5.954 78.77 78.77 0 007.823-7.181 110 110 0 0013.181-16.992 125.538 125.538 0 0015.013-33.242 108.04 108.04 0 003.417-17.349c.101-.916.174-1.832.247-2.748 0-.513.083-1.026.129-1.548.055-.916.091-1.832.119-2.748l.055-1.52a5.506 5.506 0 00-1.439-4.48z" fill="#455A64"/></svg>