<svg width="25" height="25" fill="none" xmlns="http://www.w3.org/2000/svg"><g clip-path="url(#clip0)" fill="#F54114"><path d="M19.006 16.538c-.816-.806-1.836-.806-2.648 0-.619.614-1.238 1.228-1.846 1.852-.167.172-.307.208-.51.094-.4-.219-.827-.396-1.212-.635-1.795-1.129-3.299-2.58-4.63-4.214-.661-.811-1.249-1.68-1.66-2.658-.083-.198-.067-.328.094-.489.619-.598 1.222-1.212 1.831-1.826.848-.853.848-1.852-.005-2.71-.484-.49-.968-.968-1.452-1.457-.5-.5-.993-1.004-1.498-1.498-.817-.796-1.836-.796-2.648.005C2.198 3.616 1.6 4.245.965 4.849.377 5.405.08 6.087.018 6.883-.08 8.178.237 9.4.684 10.592c.916 2.466 2.31 4.656 4 6.664 2.284 2.716 5.01 4.864 8.2 6.415 1.435.697 2.923 1.232 4.54 1.32 1.114.063 2.082-.218 2.857-1.086.53-.594 1.129-1.135 1.69-1.702.833-.842.838-1.862.011-2.694a809.102 809.102 0 00-2.976-2.97zm-.994-4.146l1.92-.328a8.58 8.58 0 00-2.398-4.63 8.534 8.534 0 00-4.89-2.44l-.271 1.93a6.62 6.62 0 013.787 1.889 6.62 6.62 0 011.852 3.579zm3.002-8.345A14.155 14.155 0 0012.898 0l-.27 1.93a12.274 12.274 0 017.013 3.496 12.264 12.264 0 013.438 6.633L25 11.73a14.258 14.258 0 00-3.985-7.684z"/></g><defs><clipPath id="clip0"><path fill="#fff" d="M0 0h25v25H0z"/></clipPath></defs></svg>