<svg width="122" height="46" fill="none" xmlns="http://www.w3.org/2000/svg"><path d="M22.875 46C10.263 46 0 35.68 0 23S10.263 0 22.875 0 45.75 10.32 45.75 23 35.487 46 22.875 46zm0-38.333c-8.408 0-15.25 6.88-15.25 15.333 0 8.454 6.842 15.333 15.25 15.333 8.408 0 15.25-6.88 15.25-15.333 0-8.454-6.842-15.333-15.25-15.333z" fill="#fff"/><path d="M48.292 46C35.68 46 25.417 35.68 25.417 23S35.68 0 48.292 0c12.611 0 22.875 10.32 22.875 23S60.903 46 48.292 46zm0-38.333c-8.408 0-15.25 6.88-15.25 15.333 0 8.454 6.842 15.333 15.25 15.333 8.407 0 15.25-6.88 15.25-15.333 0-8.454-6.843-15.333-15.25-15.333z" fill="#fff"/><path d="M73.708 46c-12.611 0-22.875-10.32-22.875-23S61.097 0 73.708 0C86.32 0 96.583 10.32 96.583 23S86.32 46 73.708 46zm0-38.333c-8.407 0-15.25 6.88-15.25 15.333 0 8.454 6.843 15.333 15.25 15.333 8.408 0 15.25-6.88 15.25-15.333 0-8.454-6.842-15.333-15.25-15.333z" fill="#fff"/><path d="M99.125 46C86.513 46 76.25 35.68 76.25 23S86.513 0 99.125 0 122 10.32 122 23s-10.263 23-22.875 23zm0-38.333c-8.408 0-15.25 6.88-15.25 15.333 0 8.454 6.842 15.333 15.25 15.333 8.408 0 15.25-6.88 15.25-15.333 0-8.454-6.842-15.333-15.25-15.333z" fill="#fff"/></svg>