<svg width="92" height="92" fill="none" xmlns="http://www.w3.org/2000/svg"><path d="M46 86.579c-22.179 0-40.414-18.4-40.414-40.579 0-4.6.821-9.036 2.3-13.307l23.657 46c.328.657.657 1.15 1.478 1.15.822 0 1.15-.493 1.479-1.15l11.007-24.479c.164-.328.329-.493.493-.493.329 0 .329.329.493.493l11.171 24.479c.329.657.657 1.15 1.479 1.15.821 0 1.15-.493 1.478-1.15l23.658-46c1.478 4.107 2.3 8.543 2.3 13.307-.165 22.179-18.4 40.579-40.579 40.579zm0-51.093c-.329 0-.329-.329-.493-.493L32.857 7.72A38.782 38.782 0 0146 5.421c4.6 0 9.036.822 13.143 2.3l-12.65 27.272c-.164.164-.164.493-.493.493zM32.693 65.057c-.329 0-.329-.328-.493-.493L11.5 24.807c3.614-5.914 8.871-10.843 14.95-14.293l14.621 31.543c.329.657.658.822 1.15.822h7.558c.492 0 .821-.165 1.15-.822l14.457-31.543c6.078 3.45 11.335 8.379 14.95 14.293L59.8 64.564c-.164.329-.329.493-.493.493-.328 0-.328-.328-.493-.493L50.93 47.15c-.329-.657-.658-.821-1.15-.821h-7.56c-.492 0-.821.164-1.15.821l-7.885 17.414c-.165.165-.165.493-.493.493zM46 92c25.464 0 46-20.536 46-46S71.464 0 46 0 0 20.536 0 46s20.536 46 46 46z" fill="#fff"/></svg>