<svg width="221" height="11" fill="none" xmlns="http://www.w3.org/2000/svg"><path fill-rule="evenodd" clip-rule="evenodd" d="M55.132 8.213H35.397c-.302 0-.601-.205-.903-.617V3.573c0-.617.298-.927.903-.927h19.735c.098.106.245.157.449.157.301.209.452.464.452.772v4.022l-.901.616zM24.25 4.196H3.313V2.648h20.938l.907.62-.908.928zm63.11-.312c-.1.21-.25.312-.45.312H66.127V2.648H86.91c.2 0 .45.21.752.62-.102.206-.204.411-.3.616zM28.168 2.338c0-1.544-.756-2.32-2.259-2.32H0V11h3.313V6.67H25.91c1.504 0 2.259-.823 2.259-2.474V2.338zm30.726 0c0-1.544-.756-2.32-2.258-2.32H33.59c-1.508 0-2.26.776-2.26 2.32v6.031c0 1.753.752 2.631 2.26 2.631h23.046c1.502 0 2.258-.878 2.258-2.63V2.337zm32.082 5.414c0-.62-.303-1.237-.903-1.858.6-.306.903-.872.903-1.698V2.338c0-1.544-.806-2.32-2.41-2.32H62.96V11h3.168V6.67h20.48c.098.1.298.28.601.541.302.26.454.49.454.692V11h3.314V7.752h-.002zM122.61 6.67c0-1.648-.806-2.474-2.41-2.474H98.506c-.2 0-.503-.306-.903-.927l.375-.386a.73.73 0 01.528-.235h24.102V.018H96.851c-1.507 0-2.26.776-2.26 2.32v1.858c0 1.652.753 2.474 2.26 2.474h21.688c.602 0 .904.31.904.927-.098.105-.226.235-.376.386a.723.723 0 01-.528.231H94.593V11H120.2c1.604 0 2.41-.878 2.41-2.63v-1.7zm31.628 1.543h-23.946l-.454-.617V3.573c0-.306.149-.617.454-.927h23.946V.016h-25.302c-1.611 0-2.412.777-2.412 2.32v6.032c0 1.753.801 2.63 2.412 2.63h25.302V8.214zM185.267.017h-3.011v4.177h-21.694V.017H157.4v10.982h3.162v-4.33h21.694v4.33h3.011V.017zm31.932 8.196h-24.851V6.67h24.851V4.196h-24.851V2.648h24.851V.018h-28.163V11h28.163V8.213zM219.509 0c-.84 0-1.492.67-1.492 1.53s.652 1.53 1.492 1.53c.842 0 1.491-.67 1.491-1.53S220.351 0 219.509 0zm0 .218c.721 0 1.26.581 1.26 1.313 0 .733-.539 1.312-1.26 1.312-.722 0-1.258-.579-1.258-1.312 0-.733.536-1.313 1.258-1.313zm-.326 1.411h.356l.484.784h.248l-.513-.784c.234-.042.435-.182.435-.494 0-.318-.175-.49-.562-.49h-.661v1.768h.214v-.784h-.001zm0-.186V.831h.389c.208 0 .407.058.407.305 0 .3-.255.307-.516.307h-.28z" fill="#fff"/></svg>