<svg width="88" height="77" fill="none" xmlns="http://www.w3.org/2000/svg"><path d="M0 32.472v12.426l56.126 9.384c-.671.315-1.493.476-3.249.51-2.629.05-5.848.073-9.838.073C28.846 54.865 0 53.83 0 53.83s.561 11.51.796 14.945c.286 4.257.421 5.071 1.503 5.8.502.335 1.463.804 4.008.98 24.438 1.68 43.937 1.822 63.096.8 8.264-.44 11.73-1.06 14.696-3.645 2.152-1.878 3.248-4.99 3.424-10.11.176-5.111.422-14.784.422-14.784L0 32.472zm35.12-10.26a559.2 559.2 0 019.837-.073C59.154 22.14 88 23.173 88 23.173s-.565-11.513-.792-14.949c-.29-4.257-.425-5.075-1.507-5.8-.502-.338-1.463-.807-4.004-.983C57.259-.235 37.759-.378 18.601.645c-8.268.44-11.73 1.06-14.7 3.645C1.75 6.167.653 9.28.477 14.403.297 19.512.05 29.187.05 29.187L88 44.532v-12.43l-56.13-9.38c.675-.319 1.497-.48 3.25-.51z" fill="#fff"/></svg>