<svg width="96" height="97" fill="none" xmlns="http://www.w3.org/2000/svg"><path fill-rule="evenodd" clip-rule="evenodd" d="M44.904 19.82c15.337-1.434 28.984 9.907 30.419 25.257 1.407 15.337-9.92 28.985-25.258 30.405-15.336 1.435-28.997-9.907-30.418-25.243-1.421-15.337 9.92-28.998 25.257-30.42zm-1.22-17.374C68.58.153 90.78 18.586 93.1 43.482c2.292 24.922-16.14 47.123-41.036 49.415C27.155 95.216 4.94 76.783 2.648 51.875c-2.32-24.91 16.114-47.11 41.036-49.43zm-.12-2.24c26.329-2.44 49.79 17.053 52.23 43.383 2.44 26.33-17.04 49.79-43.369 52.23C26.11 98.26 2.648 78.78.208 52.45-2.245 26.134 17.248 2.66 43.563.206zm14.974 63.92l-21.45-1.983c-1.836-.442-3.58.053-5.201 1.421-.872.469-3.74.376-4.143-.804-.844-3.191-1.233-4.625-3.459-6.422-.67-.764-.562-1.314.322-1.622l6.421.59c1.167.12 1.984.429 2.655.79l3.445 1.945c.295.188 1.528.308 1.569-.979.147-3.54-1.341-7.561-4.156-10.698-.871-.94-2.118-1.743-3.459-2.494-1.073-.496-2.132-.871-3.231-.992-2.159-.148-3.405-.456-3.727-.912-1.314-.965.228-3.673.79-5.067.644-1.528 1.583-2.99 3.044-3.62 2.225.336 5.108 1.823 8.365 3.968 1.046.148 1.327-.24.764-1.18-2.278-2.104-7.748-3.914-7.64-5.107.938-2.198 3.967-3.995 6.22-5.39 1.595-1.031 3.405-1.742 4.652-1.541 1.394.47 3.78 3.445 7.28 8.138.67.925 1.81.12 1.3-.898-.711-1.046-1.569-2.266-1.878-2.722-1.997-2.614-3.713-4.303-3.7-5 .322-1.488 3.969-1.649 8.741-.83 8.808 6.475 11.905 20.832 6.167 34.855-.188.482-.335 1.14-.322 1.662.013.564.336.818.952.831.563-.013.818-.134 1.02-.59-.014-.59-.123-.964.214-1.5 2.372-.363 7.145 2.385 8.432 4.799-1.488 1.957-5.322 3.793-8.5 3.78-.348-.054-.603-.282-.697-.644l-.013-.738c-.052-.589-.28-.938-.777-1.045zm-6.622-14.572a3.795 3.795 0 014.115 3.42c.188 2.064-1.34 3.9-3.419 4.101a3.768 3.768 0 01-4.088-3.418c-.201-2.064 1.327-3.901 3.392-4.103zm32.778-17.186l-4.425.55 1.087 2.507 3.338-3.057zm2.064-3.178l1.97 4.358-10.269 9.196-1.395-3.82 2.147-1.904-1.596-3.767-2.883.12-1.649-3.538 13.675-.645zM70.376 14.726l-3.566 5.268c1.823 1.515 3.352 2.507 5.228-.321 1.864-2.843.443-3.513-1.662-4.947zm-1.541-4.25l3.687 2.332c4.169 2.615 5.268 5.59 2.653 9.358-2.627 3.767-5.523 3.097-9.531.335l-3.486-2.4 6.677-9.625zm-24.95 1.032c-.094-4.223 2.936-6.556 6.743-6.381 3.808.174 7.16 1.085 7.266 5.858.121 4.746-2.761 6.328-6.93 6.395-4.17.067-6.972-1.662-7.079-5.872zm4.33-.683c-.281 3.391 1.153 4.128 2.507 4.128 1.381 0 2.534-.75 2.87-3.673.294-2.762-1.194-3.928-2.614-3.86-2.186.093-2.642 1.97-2.763 3.405zm-24.68 1.93l3.27-1.984L29.5 15.29l.617-6.22 3.968-1.596-.952 6.3 6.247 4.01-3.915 1.541L29.902 16l2.856 4.746-3.365 2.064-5.858-10.055zM19.593 34.15c4.009-2.775 6.113-7.32 2.936-9.72-3.686-2.762-6.127 2.6-7.749 2.387-1.045-.134.08-2.588 2.293-4.518l-1.528-1.314c-4.679 3.606-5.631 8.392-2.118 9.974 2.815 1.274 5.818-3.674 6.515-3.405 2.44.952-1.743 4.746-2.346 5.108l1.997 1.488zM59.88 84.33c-2.199-2.642-1.395-6.208 1.367-7.628 1.663-.846 4.17-.778 5.47.496 1.502 1.501 2.052 4.625.215 6.676-1.381 1.541-5.537 2.28-7.052.455zm4.599-1.275c1.126-.562.938-2.184.55-3.15-.631-1.514-1.771-2.064-2.803-1.649-1.167.47-1.14 2.118-.644 3.204.483 1.086 1.676 2.172 2.897 1.595zm-14.828 5.27l-.402-6.423-2.24.108-.107-2.079 7.146-.321.121 2.065-2.105.106.375 6.422-2.788.121zm-14.907-10.98l2.882.87-1.287 4.533c-.215.763-.496 1.916.603 2.145 1.1.227 1.34-.752 1.569-1.556l1.273-4.544 2.574.697-1.3 4.598c-.59 2.4-2.64 3.15-4.733 2.587-2.4-.617-3.552-2.293-2.868-4.732l1.287-4.598zm-7.374-2.668l-2.815 1.89 1.555 1.234 1.26-3.124zm-8.07 2.212l7.574-4.438 3.204 2.239-3.218 8.62-2.185-1.957.59-1.742-2.293-1.837-1.42 1.02-2.253-1.905zm-9.588-51.72l1.702.013c.336-.79.778-1.541 1.274-2.132l-.456-1.702c-.482.51-.952 1.059-1.099 1.528l.388.75-.991.081c-.402.47-.59.805-.818 1.462z" fill="#fff"/></svg>