<svg width="51" height="48" fill="none" xmlns="http://www.w3.org/2000/svg"><path d="M34.373 44.87c-.245-.152-1.006-.346-1.215-.505l-4.293 2.797-3.49-3.462 3.001-4.743c-.111-.201-.09-.236-.188-.45l-5.529-.977.021-5.338 4.035-.693-2.01-1.946c-1.676 1.358-3.728 2.16-5.92 2.16h-.014c-2.073 0-4.014-.72-5.633-1.938l-2.045 1.939h-4c-1.843 0-3.288.623-4.412 1.918C-.607 37.399-.055 45.514.203 48h34.77l-.6-3.13zM10.458 21.673c.265 2.265 1.221 4.28 2.617 5.755.293.311.6.595.928.851a8.18 8.18 0 001.327.859 7.512 7.512 0 003.448.851 7.512 7.512 0 003.448-.851 8.18 8.18 0 001.327-.859c.328-.263.642-.547.935-.858 1.39-1.475 2.346-3.47 2.61-5.72.029 0 .05.007.078.007 1.451 0 2.631-1.343 2.631-2.998 0-1.004-.433-1.884-1.096-2.43H9.291c-.662.546-1.095 1.426-1.095 2.43 0 1.523.984 2.763 2.261 2.963zM51 35.973v-2.306l-4.837-.866a8.622 8.622 0 00-1.04-2.486l2.813-3.988-1.648-1.635-4.034 2.784a8.632 8.632 0 00-2.506-1.025l-.859-4.791h-2.324l-.873 4.798a8.78 8.78 0 00-2.506 1.032l-4.02-2.79-1.648 1.634 2.806 4.002a8.492 8.492 0 00-1.033 2.486l-4.83.851v2.306l4.837.866a8.619 8.619 0 001.04 2.486l-2.82 3.988 1.647 1.634L33.2 42.17a8.634 8.634 0 002.506 1.024l.858 4.792h2.325l.872-4.798a8.764 8.764 0 002.506-1.032l4.021 2.79 1.648-1.634-2.807-4.002c.468-.762.824-1.6 1.034-2.486L51 35.972zm-13.277 2.409c-1.982 0-3.588-1.593-3.588-3.56 0-1.966 1.606-3.558 3.588-3.558 1.983 0 3.588 1.592 3.588 3.559 0 1.966-1.605 3.559-3.588 3.559zM15.093 3.435c-2.904 1.467-5.194 4.403-6.06 7.256l-.195.61H7.246v3.462h23.51V11.3h-1.563l-.196-.61c-.865-2.853-3.155-5.76-6.059-7.229v7.534a2.302 2.302 0 01-.223.859c-.363.692-1.089 1.19-1.927 1.19H17.27a2.15 2.15 0 01-1.843-1.024c-.167-.25-.25-.527-.307-.831-.028-.11-.028-.194-.028-.305v-7.45zm2.177 8.697h3.49c.503 0 .922-.277 1.145-.693.112-.194.168-.388.168-.61V1.718c0-.221-.056-.415-.112-.61A1.765 1.765 0 0020.341 0h-3.07c-.67 0-1.23.499-1.285 1.136 0 .055-.028.11-.028.166v9.528c0 .277.084.526.223.748.252.332.643.554 1.09.554z" fill="#F54114"/></svg>