<svg width="44" height="44" fill="none" xmlns="http://www.w3.org/2000/svg"><path d="M18.896 35.625a3.872 3.872 0 01-1.416-5.282l1.636-2.834a5.158 5.158 0 01-.001-5.154 5.173 5.173 0 014.468-2.578c.902 0 1.792.239 2.576.691l2.494 1.44 3.144-6.803V1.29A1.29 1.29 0 0030.507 0H1.29A1.29 1.29 0 000 1.29v41.42C0 43.424.577 44 1.29 44h29.218c.595 0 1.094-.405 1.242-.953l-12.854-7.422zM6.446 5.156h18.906a1.289 1.289 0 010 2.578H6.445a1.29 1.29 0 010-2.578zm0 5.157h18.906a1.29 1.29 0 010 2.578H6.445a1.289 1.289 0 110-2.579zm0 5.156h18.906a1.289 1.289 0 110 2.578H6.445a1.29 1.29 0 010-2.578zm3.437 23.203a4.732 4.732 0 01-4.727-4.727 4.732 4.732 0 014.727-4.726 4.732 4.732 0 014.726 4.726 4.732 4.732 0 01-4.726 4.727zm5.156-14.61H6.445a1.29 1.29 0 010-2.578h8.594a1.289 1.289 0 110 2.578z" fill="#F54114"/><path d="M9.883 36.094a2.148 2.148 0 100-4.297 2.148 2.148 0 000 4.297zm29.127-5.229L24.87 22.7a2.578 2.578 0 00-2.579 4.465l14.14 8.164a2.578 2.578 0 002.579-4.465zm4.272-15.912a3.924 3.924 0 10-6.768-3.908l-5.62 12.158 4.67 2.695 7.718-10.945zM19.713 31.632a1.29 1.29 0 00.472 1.76l11.908 6.876a1.29 1.29 0 001.76-.472l1.29-2.233-14.14-8.164-1.29 2.233z" fill="#F54114"/></svg>