<svg width="48" height="42" fill="none" xmlns="http://www.w3.org/2000/svg"><path d="M21.077 25.488A2.926 2.926 0 0024 28.411a2.926 2.926 0 002.923-2.923c0-1.226-1.48-8.995-2.923-16.18-1.442 7.184-2.923 14.954-2.923 16.18zM8.026 6.033l6.637 6.638a14.62 14.62 0 017.928-3.29V0A23.836 23.836 0 008.026 6.033zm33.941 1.993l-6.638 6.637a14.622 14.622 0 013.29 7.928H48a23.837 23.837 0 00-6.033-14.565zM25.409 0v9.381a14.62 14.62 0 017.928 3.29l6.637-6.638A23.836 23.836 0 0025.41 0zm8.976 34.385l-.996.996 6.615 6.615L41 41c4.207-4.207 6.662-9.7 7-15.591h-9.38a14.574 14.574 0 01-4.235 8.976zM0 22.591h9.381a14.62 14.62 0 013.29-7.928L6.033 8.026A23.837 23.837 0 000 22.59zM7 41l.996.996 6.615-6.615-.996-.996a14.575 14.575 0 01-4.235-8.976H0C.338 31.3 2.793 36.793 7 41z" fill="#F54114"/></svg>