<svg width="39" height="45" fill="none" xmlns="http://www.w3.org/2000/svg"><path d="M38.974 41.605a3.58 3.58 0 01-1.176 2.43A3.746 3.746 0 0135.23 45H3.743a3.746 3.746 0 01-2.567-.965A3.58 3.58 0 010 41.605v-.057a2.315 2.315 0 01.717-1.613 2.424 2.424 0 011.665-.67h34.21a2.424 2.424 0 011.681.66c.45.427.711 1.01.727 1.623l-.026.057zm-5.014-6.004a2.26 2.26 0 01-.727 1.567 2.366 2.366 0 01-1.64.625H7.361a2.365 2.365 0 01-1.628-.632 2.26 2.26 0 01-.72-1.56v-.064c.02-.597.28-1.162.723-1.573a2.359 2.359 0 011.645-.626h24.23a2.358 2.358 0 011.632.633c.439.41.696.972.717 1.566v.064zm-4.25-5.586a1.474 1.474 0 01-.449 1.05 1.545 1.545 0 01-1.077.435H10.79c-.403 0-.79-.157-1.076-.435a1.475 1.475 0 01-.45-1.05 3.477 3.477 0 011.056-2.483 3.642 3.642 0 012.543-1.027h13.401c.44-.01.876.078 1.276.257a3.65 3.65 0 011.575 1.314c.385.577.592 1.25.596 1.939zM19.342 8.074c0 1.9-.685 3.74-1.935 5.195a8.314 8.314 0 01-4.9 2.764c-.472.076-.95.115-1.428.115a8.401 8.401 0 01-4.59-1.36 8.117 8.117 0 01-3.044-3.624 7.903 7.903 0 01-.47-4.665 8.019 8.019 0 012.261-4.134 8.325 8.325 0 014.23-2.21 8.443 8.443 0 014.775.46 8.225 8.225 0 013.709 2.973 7.943 7.943 0 011.392 4.486zm3.296 17.146l-5.04-10.287a.745.745 0 01-.072.071 9.663 9.663 0 01-4.79 2.302h-.124l3.895 7.907 6.131.006z" fill="#F54114"/></svg>