<svg width="48" height="48" fill="none" xmlns="http://www.w3.org/2000/svg"><path d="M47.588 37.08l-5.153-5.154a4.198 4.198 0 01-2.837 2.284l-.702.166-.167.703c-.285 1.2-1.625 3.46-4.446 3.23l-.72-.058-.375.616a4.247 4.247 0 01-2.874 1.957l6.765 6.764a1.406 1.406 0 002.329-.55l1.907-5.723 5.724-1.907a1.406 1.406 0 00.549-2.329zm-32.776 1.787l-.375-.616-.72.058c-2.821.23-4.161-2.03-4.446-3.23l-.167-.703-.702-.166a4.198 4.198 0 01-2.837-2.284L.412 37.079a1.406 1.406 0 00.55 2.329l5.723 1.907 1.907 5.724a1.406 1.406 0 002.329.55l6.765-6.765a4.247 4.247 0 01-2.874-1.957zm15.974-1.463l1.277-2.097 2.447.199a1.407 1.407 0 001.482-1.077l.568-2.388 2.388-.567a1.406 1.406 0 001.076-1.483l-.199-2.446 2.097-1.277a1.406 1.406 0 00.566-1.742l-.945-2.266 1.599-1.863a1.406 1.406 0 000-1.831l-1.599-1.864.945-2.265a1.407 1.407 0 00-.566-1.742l-2.097-1.278.2-2.446a1.407 1.407 0 00-1.077-1.482l-2.388-.567-.568-2.389a1.407 1.407 0 00-1.481-1.077l-2.448.2-1.277-2.097a1.407 1.407 0 00-1.742-.566l-2.266.945L24.916.339a1.406 1.406 0 00-1.832 0l-1.862 1.599-2.266-.945a1.406 1.406 0 00-1.742.566l-1.278 2.096-2.447-.199a1.407 1.407 0 00-1.481 1.077L11.44 6.92l-2.388.568c-.675.16-1.132.79-1.076 1.482l.199 2.446-2.097 1.278a1.406 1.406 0 00-.566 1.742l.945 2.265-1.599 1.864a1.406 1.406 0 000 1.831l1.599 1.863-.945 2.266c-.267.64-.026 1.38.567 1.742l2.096 1.277-.2 2.446a1.406 1.406 0 001.078 1.483l2.387.567.568 2.388c.16.676.79 1.132 1.482 1.077l2.447-.199 1.277 2.096a1.406 1.406 0 001.742.566l2.266-.945 1.862 1.599a1.407 1.407 0 001.832 0l1.862-1.599 2.266.945c.64.268 1.38.027 1.742-.566zm-7.298-7.89a1.408 1.408 0 01-1.989 0l-8.284-8.285c-.55-.55-.55-1.44 0-1.989l4.26-4.26c.55-.55 1.44-.55 1.99 0l3.029 3.03 6.795-6.796c.549-.55 1.44-.55 1.989 0l4.26 4.26c.55.55.55 1.44 0 1.989l-12.05 12.05z" fill="#F54114"/><path d="M23.488 20.992c-.549.55-1.44.55-1.989 0l-3.03-3.03-2.27 2.272 6.295 6.296 10.061-10.061-2.272-2.272-6.795 6.795z" fill="#F54114"/></svg>