<svg width="47" height="48" fill="none" xmlns="http://www.w3.org/2000/svg"><path d="M43.837 24.622a1.407 1.407 0 010-1.244l1.79-3.662a4.167 4.167 0 00-1.798-5.533l-3.6-1.91a1.407 1.407 0 01-.732-1.007l-.704-4.015a4.167 4.167 0 00-4.707-3.42l-4.036.571a1.407 1.407 0 01-1.182-.384l-2.93-2.834a4.167 4.167 0 00-5.818 0l-2.93 2.834a1.407 1.407 0 01-1.183.384l-4.036-.57a4.167 4.167 0 00-4.707 3.42l-.704 4.014c-.076.434-.342.8-.73 1.006l-3.602 1.91A4.167 4.167 0 00.43 19.717l1.79 3.662c.194.396.194.849 0 1.244L.43 28.284a4.167 4.167 0 001.798 5.534l3.601 1.91c.389.206.655.573.731 1.006l.704 4.015a4.164 4.164 0 004.707 3.42l4.037-.571c.435-.062.866.078 1.182.384l2.93 2.834a4.17 4.17 0 005.818 0l2.93-2.834a1.408 1.408 0 011.182-.384l4.036.57a4.166 4.166 0 004.707-3.419l.705-4.015c.076-.433.342-.8.73-1.006l3.601-1.91a4.167 4.167 0 001.798-5.534l-1.79-3.662zm-26.345-13.08a5.081 5.081 0 015.075 5.076 5.081 5.081 0 01-5.075 5.075 5.081 5.081 0 01-5.076-5.075 5.081 5.081 0 015.076-5.076zm-2.62 22.572a1.38 1.38 0 01-1.957 0 1.384 1.384 0 010-1.957l18.27-18.271a1.384 1.384 0 111.958 1.958l-18.27 18.27zm13.694 2.344a5.081 5.081 0 01-5.076-5.075 5.081 5.081 0 015.076-5.076 5.081 5.081 0 015.075 5.076 5.081 5.081 0 01-5.075 5.075z" fill="#F54114"/><path d="M28.566 29.076a2.31 2.31 0 00-2.308 2.306 2.31 2.31 0 002.308 2.308 2.31 2.31 0 002.306-2.307 2.31 2.31 0 00-2.306-2.307zM17.492 14.31a2.31 2.31 0 00-2.307 2.307 2.31 2.31 0 002.307 2.308 2.31 2.31 0 002.307-2.308 2.31 2.31 0 00-2.307-2.306z" fill="#F54114"/></svg>